<?xml version="1.0" encoding="utf-8"?>
<svg xmlns="http://www.w3.org/2000/svg" xmlns:xlink="http://www.w3.org/1999/xlink" width="600" height="400" viewBox="0 0 2400 1600">
<defs>
  <clipPath id="clip110">
    <rect x="0" y="0" width="2400" height="1600"/>
  </clipPath>
</defs>
<path clip-path="url(#clip110)" d="
M0 1600 L2400 1600 L2400 0 L0 0  Z
  " fill="#ffffff" fill-rule="evenodd" fill-opacity="1"/>
<defs>
  <clipPath id="clip111">
    <rect x="480" y="0" width="1681" height="1600"/>
  </clipPath>
</defs>
<path clip-path="url(#clip110)" d="
M252.764 1410.9 L2352.76 1410.9 L2352.76 47.2441 L252.764 47.2441  Z
  " fill="#ffffff" fill-rule="evenodd" fill-opacity="1"/>
<defs>
  <clipPath id="clip112">
    <rect x="252" y="47" width="2101" height="1365"/>
  </clipPath>
</defs>
<polyline clip-path="url(#clip112)" style="stroke:#000000; stroke-width:2; stroke-opacity:0.1; fill:none" points="
  380.5,1410.9 380.5,47.2441 
  "/>
<polyline clip-path="url(#clip112)" style="stroke:#000000; stroke-width:2; stroke-opacity:0.1; fill:none" points="
  906.518,1410.9 906.518,47.2441 
  "/>
<polyline clip-path="url(#clip112)" style="stroke:#000000; stroke-width:2; stroke-opacity:0.1; fill:none" points="
  1432.54,1410.9 1432.54,47.2441 
  "/>
<polyline clip-path="url(#clip112)" style="stroke:#000000; stroke-width:2; stroke-opacity:0.1; fill:none" points="
  1958.55,1410.9 1958.55,47.2441 
  "/>
<polyline clip-path="url(#clip110)" style="stroke:#000000; stroke-width:4; stroke-opacity:1; fill:none" points="
  252.764,1410.9 2352.76,1410.9 
  "/>
<polyline clip-path="url(#clip110)" style="stroke:#000000; stroke-width:4; stroke-opacity:1; fill:none" points="
  380.5,1410.9 380.5,1394.53 
  "/>
<polyline clip-path="url(#clip110)" style="stroke:#000000; stroke-width:4; stroke-opacity:1; fill:none" points="
  906.518,1410.9 906.518,1394.53 
  "/>
<polyline clip-path="url(#clip110)" style="stroke:#000000; stroke-width:4; stroke-opacity:1; fill:none" points="
  1432.54,1410.9 1432.54,1394.53 
  "/>
<polyline clip-path="url(#clip110)" style="stroke:#000000; stroke-width:4; stroke-opacity:1; fill:none" points="
  1958.55,1410.9 1958.55,1394.53 
  "/>
<path clip-path="url(#clip110)" d="M 0 0 M330.155 1489.17 L337.793 1489.17 L337.793 1462.8 L329.483 1464.47 L329.483 1460.21 L337.747 1458.54 L342.423 1458.54 L342.423 1489.17 L350.062 1489.17 L350.062 1493.1 L330.155 1493.1 L330.155 1489.17 Z" fill="#000000" fill-rule="evenodd" fill-opacity="1" /><path clip-path="url(#clip110)" d="M 0 0 M369.506 1461.62 Q365.895 1461.62 364.066 1465.19 Q362.261 1468.73 362.261 1475.86 Q362.261 1482.97 364.066 1486.53 Q365.895 1490.07 369.506 1490.07 Q373.14 1490.07 374.946 1486.53 Q376.775 1482.97 376.775 1475.86 Q376.775 1468.73 374.946 1465.19 Q373.14 1461.62 369.506 1461.62 M369.506 1457.92 Q375.316 1457.92 378.372 1462.53 Q381.451 1467.11 381.451 1475.86 Q381.451 1484.59 378.372 1489.19 Q375.316 1493.78 369.506 1493.78 Q363.696 1493.78 360.617 1489.19 Q357.562 1484.59 357.562 1475.86 Q357.562 1467.11 360.617 1462.53 Q363.696 1457.92 369.506 1457.92 Z" fill="#000000" fill-rule="evenodd" fill-opacity="1" /><path clip-path="url(#clip110)" d="M 0 0 M381.451 1452.02 L405.562 1452.02 L405.562 1455.22 L381.451 1455.22 L381.451 1452.02 Z" fill="#000000" fill-rule="evenodd" fill-opacity="1" /><path clip-path="url(#clip110)" d="M 0 0 M421.887 1452.36 Q419.179 1452.36 417.618 1453.81 Q416.076 1455.26 416.076 1457.79 Q416.076 1460.33 417.618 1461.78 Q419.179 1463.23 421.887 1463.23 Q424.596 1463.23 426.157 1461.78 Q427.718 1460.31 427.718 1457.79 Q427.718 1455.26 426.157 1453.81 Q424.614 1452.36 421.887 1452.36 M418.088 1450.74 Q415.643 1450.14 414.27 1448.47 Q412.916 1446.79 412.916 1444.38 Q412.916 1441.02 415.305 1439.06 Q417.712 1437.11 421.887 1437.11 Q426.081 1437.11 428.47 1439.06 Q430.859 1441.02 430.859 1444.38 Q430.859 1446.79 429.486 1448.47 Q428.131 1450.14 425.705 1450.74 Q428.451 1451.38 429.975 1453.24 Q431.517 1455.1 431.517 1457.79 Q431.517 1461.88 429.015 1464.06 Q426.533 1466.24 421.887 1466.24 Q417.242 1466.24 414.74 1464.06 Q412.258 1461.88 412.258 1457.79 Q412.258 1455.1 413.8 1453.24 Q415.342 1451.38 418.088 1450.74 M416.696 1444.74 Q416.696 1446.92 418.05 1448.15 Q419.423 1449.37 421.887 1449.37 Q424.332 1449.37 425.705 1448.15 Q427.097 1446.92 427.097 1444.74 Q427.097 1442.56 425.705 1441.34 Q424.332 1440.11 421.887 1440.11 Q419.423 1440.11 418.05 1441.34 Q416.696 1442.56 416.696 1444.74 Z" fill="#000000" fill-rule="evenodd" fill-opacity="1" /><path clip-path="url(#clip110)" d="M 0 0 M856.069 1489.17 L863.708 1489.17 L863.708 1462.8 L855.398 1464.47 L855.398 1460.21 L863.662 1458.54 L868.338 1458.54 L868.338 1489.17 L875.977 1489.17 L875.977 1493.1 L856.069 1493.1 L856.069 1489.17 Z" fill="#000000" fill-rule="evenodd" fill-opacity="1" /><path clip-path="url(#clip110)" d="M 0 0 M895.421 1461.62 Q891.81 1461.62 889.981 1465.19 Q888.176 1468.73 888.176 1475.86 Q888.176 1482.97 889.981 1486.53 Q891.81 1490.07 895.421 1490.07 Q899.055 1490.07 900.861 1486.53 Q902.689 1482.97 902.689 1475.86 Q902.689 1468.73 900.861 1465.19 Q899.055 1461.62 895.421 1461.62 M895.421 1457.92 Q901.231 1457.92 904.287 1462.53 Q907.365 1467.11 907.365 1475.86 Q907.365 1484.59 904.287 1489.19 Q901.231 1493.78 895.421 1493.78 Q889.611 1493.78 886.532 1489.19 Q883.477 1484.59 883.477 1475.86 Q883.477 1467.11 886.532 1462.53 Q889.611 1457.92 895.421 1457.92 Z" fill="#000000" fill-rule="evenodd" fill-opacity="1" /><path clip-path="url(#clip110)" d="M 0 0 M907.365 1452.02 L931.477 1452.02 L931.477 1455.22 L907.365 1455.22 L907.365 1452.02 Z" fill="#000000" fill-rule="evenodd" fill-opacity="1" /><path clip-path="url(#clip110)" d="M 0 0 M948.272 1450.14 Q945.714 1450.14 944.21 1451.89 Q942.724 1453.64 942.724 1456.68 Q942.724 1459.71 944.21 1461.48 Q945.714 1463.23 948.272 1463.23 Q950.83 1463.23 952.316 1461.48 Q953.821 1459.71 953.821 1456.68 Q953.821 1453.64 952.316 1451.89 Q950.83 1450.14 948.272 1450.14 M955.814 1438.23 L955.814 1441.69 Q954.385 1441.02 952.918 1440.66 Q951.47 1440.3 950.04 1440.3 Q946.279 1440.3 944.285 1442.84 Q942.31 1445.38 942.028 1450.52 Q943.138 1448.88 944.812 1448.01 Q946.486 1447.13 948.498 1447.13 Q952.73 1447.13 955.175 1449.71 Q957.639 1452.26 957.639 1456.68 Q957.639 1461.01 955.081 1463.62 Q952.523 1466.24 948.272 1466.24 Q943.401 1466.24 940.824 1462.51 Q938.248 1458.77 938.248 1451.68 Q938.248 1445.02 941.407 1441.07 Q944.567 1437.11 949.89 1437.11 Q951.319 1437.11 952.767 1437.39 Q954.234 1437.67 955.814 1438.23 Z" fill="#000000" fill-rule="evenodd" fill-opacity="1" /><path clip-path="url(#clip110)" d="M 0 0 M1381.96 1489.17 L1389.59 1489.17 L1389.59 1462.8 L1381.28 1464.47 L1381.28 1460.21 L1389.55 1458.54 L1394.22 1458.54 L1394.22 1489.17 L1401.86 1489.17 L1401.86 1493.1 L1381.96 1493.1 L1381.96 1489.17 Z" fill="#000000" fill-rule="evenodd" fill-opacity="1" /><path clip-path="url(#clip110)" d="M 0 0 M1421.31 1461.62 Q1417.7 1461.62 1415.87 1465.19 Q1414.06 1468.73 1414.06 1475.86 Q1414.06 1482.97 1415.87 1486.53 Q1417.7 1490.07 1421.31 1490.07 Q1424.94 1490.07 1426.75 1486.53 Q1428.58 1482.97 1428.58 1475.86 Q1428.58 1468.73 1426.75 1465.19 Q1424.94 1461.62 1421.31 1461.62 M1421.31 1457.92 Q1427.12 1457.92 1430.17 1462.53 Q1433.25 1467.11 1433.25 1475.86 Q1433.25 1484.59 1430.17 1489.19 Q1427.12 1493.78 1421.31 1493.78 Q1415.5 1493.78 1412.42 1489.19 Q1409.36 1484.59 1409.36 1475.86 Q1409.36 1467.11 1412.42 1462.53 Q1415.5 1457.92 1421.31 1457.92 Z" fill="#000000" fill-rule="evenodd" fill-opacity="1" /><path clip-path="url(#clip110)" d="M 0 0 M1433.25 1452.02 L1457.36 1452.02 L1457.36 1455.22 L1433.25 1455.22 L1433.25 1452.02 Z" fill="#000000" fill-rule="evenodd" fill-opacity="1" /><path clip-path="url(#clip110)" d="M 0 0 M1476 1440.92 L1466.41 1455.91 L1476 1455.91 L1476 1440.92 M1475.01 1437.61 L1479.78 1437.61 L1479.78 1455.91 L1483.79 1455.91 L1483.79 1459.07 L1479.78 1459.07 L1479.78 1465.69 L1476 1465.69 L1476 1459.07 L1463.33 1459.07 L1463.33 1455.41 L1475.01 1437.61 Z" fill="#000000" fill-rule="evenodd" fill-opacity="1" /><path clip-path="url(#clip110)" d="M 0 0 M1908.82 1489.17 L1916.46 1489.17 L1916.46 1462.8 L1908.15 1464.47 L1908.15 1460.21 L1916.41 1458.54 L1921.09 1458.54 L1921.09 1489.17 L1928.73 1489.17 L1928.73 1493.1 L1908.82 1493.1 L1908.82 1489.17 Z" fill="#000000" fill-rule="evenodd" fill-opacity="1" /><path clip-path="url(#clip110)" d="M 0 0 M1948.17 1461.62 Q1944.56 1461.62 1942.73 1465.19 Q1940.93 1468.73 1940.93 1475.86 Q1940.93 1482.97 1942.73 1486.53 Q1944.56 1490.07 1948.17 1490.07 Q1951.81 1490.07 1953.61 1486.53 Q1955.44 1482.97 1955.44 1475.86 Q1955.44 1468.73 1953.61 1465.19 Q1951.81 1461.62 1948.17 1461.62 M1948.17 1457.92 Q1953.98 1457.92 1957.04 1462.53 Q1960.12 1467.11 1960.12 1475.86 Q1960.12 1484.59 1957.04 1489.19 Q1953.98 1493.78 1948.17 1493.78 Q1942.36 1493.78 1939.28 1489.19 Q1936.23 1484.59 1936.23 1475.86 Q1936.23 1467.11 1939.28 1462.53 Q1942.36 1457.92 1948.17 1457.92 Z" fill="#000000" fill-rule="evenodd" fill-opacity="1" /><path clip-path="url(#clip110)" d="M 0 0 M1960.12 1452.02 L1984.23 1452.02 L1984.23 1455.22 L1960.12 1455.22 L1960.12 1452.02 Z" fill="#000000" fill-rule="evenodd" fill-opacity="1" /><path clip-path="url(#clip110)" d="M 0 0 M1995.7 1462.5 L2008.96 1462.5 L2008.96 1465.69 L1991.13 1465.69 L1991.13 1462.5 Q1993.29 1460.26 1997.02 1456.5 Q2000.76 1452.72 2001.72 1451.63 Q2003.54 1449.58 2004.26 1448.16 Q2004.99 1446.74 2004.99 1445.36 Q2004.99 1443.12 2003.41 1441.71 Q2001.85 1440.3 1999.33 1440.3 Q1997.54 1440.3 1995.55 1440.92 Q1993.58 1441.54 1991.32 1442.8 L1991.32 1438.97 Q1993.61 1438.05 1995.61 1437.58 Q1997.6 1437.11 1999.26 1437.11 Q2003.62 1437.11 2006.21 1439.29 Q2008.81 1441.47 2008.81 1445.12 Q2008.81 1446.85 2008.15 1448.41 Q2007.51 1449.95 2005.8 1452.06 Q2005.33 1452.6 2002.81 1455.22 Q2000.29 1457.81 1995.7 1462.5 Z" fill="#000000" fill-rule="evenodd" fill-opacity="1" /><path clip-path="url(#clip110)" d="M 0 0 M865.691 1526.67 L874.348 1526.67 L895.418 1566.42 L895.418 1526.67 L901.657 1526.67 L901.657 1574.19 L892.999 1574.19 L871.929 1534.43 L871.929 1574.19 L865.691 1574.19 L865.691 1526.67 Z" fill="#000000" fill-rule="evenodd" fill-opacity="1" /><path clip-path="url(#clip110)" d="M 0 0 M928.011 1542.64 Q923.3 1542.64 920.563 1546.34 Q917.826 1550 917.826 1556.39 Q917.826 1562.79 920.531 1566.48 Q923.268 1570.14 928.011 1570.14 Q932.69 1570.14 935.427 1566.45 Q938.164 1562.76 938.164 1556.39 Q938.164 1550.06 935.427 1546.37 Q932.69 1542.64 928.011 1542.64 M928.011 1537.68 Q935.65 1537.68 940.01 1542.64 Q944.371 1547.61 944.371 1556.39 Q944.371 1565.15 940.01 1570.14 Q935.65 1575.11 928.011 1575.11 Q920.34 1575.11 915.98 1570.14 Q911.651 1565.15 911.651 1556.39 Q911.651 1547.61 915.98 1542.64 Q920.34 1537.68 928.011 1537.68 Z" fill="#000000" fill-rule="evenodd" fill-opacity="1" /><path clip-path="url(#clip110)" d="M 0 0 M974.735 1544.01 Q973.748 1543.44 972.571 1543.18 Q971.425 1542.9 970.024 1542.9 Q965.059 1542.9 962.386 1546.14 Q959.744 1549.36 959.744 1555.41 L959.744 1574.19 L953.856 1574.19 L953.856 1538.54 L959.744 1538.54 L959.744 1544.08 Q961.59 1540.83 964.55 1539.27 Q967.51 1537.68 971.743 1537.68 Q972.348 1537.68 973.08 1537.77 Q973.812 1537.84 974.703 1538 L974.735 1544.01 Z" fill="#000000" fill-rule="evenodd" fill-opacity="1" /><path clip-path="url(#clip110)" d="M 0 0 M1007.49 1545.38 Q1009.68 1541.43 1012.74 1539.56 Q1015.79 1537.68 1019.93 1537.68 Q1025.5 1537.68 1028.53 1541.59 Q1031.55 1545.48 1031.55 1552.67 L1031.55 1574.19 L1025.66 1574.19 L1025.66 1552.86 Q1025.66 1547.74 1023.85 1545.25 Q1022.03 1542.77 1018.31 1542.77 Q1013.76 1542.77 1011.12 1545.79 Q1008.47 1548.82 1008.47 1554.04 L1008.47 1574.19 L1002.59 1574.19 L1002.59 1552.86 Q1002.59 1547.7 1000.77 1545.25 Q998.957 1542.77 995.169 1542.77 Q990.681 1542.77 988.039 1545.83 Q985.398 1548.85 985.398 1554.04 L985.398 1574.19 L979.509 1574.19 L979.509 1538.54 L985.398 1538.54 L985.398 1544.08 Q987.403 1540.8 990.204 1539.24 Q993.005 1537.68 996.856 1537.68 Q1000.74 1537.68 1003.44 1539.65 Q1006.18 1541.62 1007.49 1545.38 Z" fill="#000000" fill-rule="evenodd" fill-opacity="1" /><path clip-path="url(#clip110)" d="M 0 0 M1077.76 1542.64 Q1073.05 1542.64 1070.32 1546.34 Q1067.58 1550 1067.58 1556.39 Q1067.58 1562.79 1070.28 1566.48 Q1073.02 1570.14 1077.76 1570.14 Q1082.44 1570.14 1085.18 1566.45 Q1087.92 1562.76 1087.92 1556.39 Q1087.92 1550.06 1085.18 1546.37 Q1082.44 1542.64 1077.76 1542.64 M1077.76 1537.68 Q1085.4 1537.68 1089.76 1542.64 Q1094.12 1547.61 1094.12 1556.39 Q1094.12 1565.15 1089.76 1570.14 Q1085.4 1575.11 1077.76 1575.11 Q1070.09 1575.11 1065.73 1570.14 Q1061.4 1565.15 1061.4 1556.39 Q1061.4 1547.61 1065.73 1542.64 Q1070.09 1537.68 1077.76 1537.68 Z" fill="#000000" fill-rule="evenodd" fill-opacity="1" /><path clip-path="url(#clip110)" d="M 0 0 M1121.88 1524.66 L1121.88 1529.53 L1116.28 1529.53 Q1113.13 1529.53 1111.88 1530.8 Q1110.67 1532.08 1110.67 1535.39 L1110.67 1538.54 L1120.32 1538.54 L1120.32 1543.09 L1110.67 1543.09 L1110.67 1574.19 L1104.79 1574.19 L1104.79 1543.09 L1099.18 1543.09 L1099.18 1538.54 L1104.79 1538.54 L1104.79 1536.05 Q1104.79 1530.1 1107.56 1527.4 Q1110.32 1524.66 1116.34 1524.66 L1121.88 1524.66 Z" fill="#000000" fill-rule="evenodd" fill-opacity="1" /><path clip-path="url(#clip110)" d="M 0 0 M1177.99 1554.9 L1177.99 1557.76 L1151.07 1557.76 Q1151.45 1563.81 1154.69 1566.99 Q1157.97 1570.14 1163.8 1570.14 Q1167.17 1570.14 1170.32 1569.32 Q1173.5 1568.49 1176.62 1566.83 L1176.62 1572.37 Q1173.47 1573.71 1170.16 1574.41 Q1166.85 1575.11 1163.45 1575.11 Q1154.92 1575.11 1149.92 1570.14 Q1144.95 1565.18 1144.95 1556.71 Q1144.95 1547.96 1149.66 1542.83 Q1154.41 1537.68 1162.43 1537.68 Q1169.62 1537.68 1173.79 1542.33 Q1177.99 1546.94 1177.99 1554.9 M1172.14 1553.18 Q1172.07 1548.37 1169.43 1545.51 Q1166.82 1542.64 1162.49 1542.64 Q1157.59 1542.64 1154.63 1545.41 Q1151.7 1548.18 1151.26 1553.21 L1172.14 1553.18 Z" fill="#000000" fill-rule="evenodd" fill-opacity="1" /><path clip-path="url(#clip110)" d="M 0 0 M1208.26 1544.01 Q1207.27 1543.44 1206.1 1543.18 Q1204.95 1542.9 1203.55 1542.9 Q1198.59 1542.9 1195.91 1546.14 Q1193.27 1549.36 1193.27 1555.41 L1193.27 1574.19 L1187.38 1574.19 L1187.38 1538.54 L1193.27 1538.54 L1193.27 1544.08 Q1195.12 1540.83 1198.08 1539.27 Q1201.04 1537.68 1205.27 1537.68 Q1205.87 1537.68 1206.61 1537.77 Q1207.34 1537.84 1208.23 1538 L1208.26 1544.01 Z" fill="#000000" fill-rule="evenodd" fill-opacity="1" /><path clip-path="url(#clip110)" d="M 0 0 M1233.91 1544.01 Q1232.93 1543.44 1231.75 1543.18 Q1230.6 1542.9 1229.2 1542.9 Q1224.24 1542.9 1221.57 1546.14 Q1218.92 1549.36 1218.92 1555.41 L1218.92 1574.19 L1213.04 1574.19 L1213.04 1538.54 L1218.92 1538.54 L1218.92 1544.08 Q1220.77 1540.83 1223.73 1539.27 Q1226.69 1537.68 1230.92 1537.68 Q1231.53 1537.68 1232.26 1537.77 Q1232.99 1537.84 1233.88 1538 L1233.91 1544.01 Z" fill="#000000" fill-rule="evenodd" fill-opacity="1" /><path clip-path="url(#clip110)" d="M 0 0 M1252.44 1542.64 Q1247.73 1542.64 1244.99 1546.34 Q1242.25 1550 1242.25 1556.39 Q1242.25 1562.79 1244.96 1566.48 Q1247.7 1570.14 1252.44 1570.14 Q1257.12 1570.14 1259.86 1566.45 Q1262.59 1562.76 1262.59 1556.39 Q1262.59 1550.06 1259.86 1546.37 Q1257.12 1542.64 1252.44 1542.64 M1252.44 1537.68 Q1260.08 1537.68 1264.44 1542.64 Q1268.8 1547.61 1268.8 1556.39 Q1268.8 1565.15 1264.44 1570.14 Q1260.08 1575.11 1252.44 1575.11 Q1244.77 1575.11 1240.41 1570.14 Q1236.08 1565.15 1236.08 1556.39 Q1236.08 1547.61 1240.41 1542.64 Q1244.77 1537.68 1252.44 1537.68 Z" fill="#000000" fill-rule="evenodd" fill-opacity="1" /><path clip-path="url(#clip110)" d="M 0 0 M1299.16 1544.01 Q1298.18 1543.44 1297 1543.18 Q1295.85 1542.9 1294.45 1542.9 Q1289.49 1542.9 1286.81 1546.14 Q1284.17 1549.36 1284.17 1555.41 L1284.17 1574.19 L1278.28 1574.19 L1278.28 1538.54 L1284.17 1538.54 L1284.17 1544.08 Q1286.02 1540.83 1288.98 1539.27 Q1291.94 1537.68 1296.17 1537.68 Q1296.78 1537.68 1297.51 1537.77 Q1298.24 1537.84 1299.13 1538 L1299.16 1544.01 Z" fill="#000000" fill-rule="evenodd" fill-opacity="1" /><path clip-path="url(#clip110)" d="M 0 0 M1333.57 1524.37 L1333.57 1589.56 L1328.16 1589.56 L1328.16 1524.37 L1333.57 1524.37 Z" fill="#000000" fill-rule="evenodd" fill-opacity="1" /><path clip-path="url(#clip110)" d="M 0 0 M1377.62 1538.54 L1364.73 1555.88 L1378.29 1574.19 L1371.38 1574.19 L1361.01 1560.18 L1350.63 1574.19 L1343.72 1574.19 L1357.57 1555.53 L1344.9 1538.54 L1351.81 1538.54 L1361.26 1551.24 L1370.71 1538.54 L1377.62 1538.54 Z" fill="#000000" fill-rule="evenodd" fill-opacity="1" /><path clip-path="url(#clip110)" d="M 0 0 M1404.32 1553.72 L1421.48 1553.72 L1421.48 1558.94 L1404.32 1558.94 L1404.32 1553.72 Z" fill="#000000" fill-rule="evenodd" fill-opacity="1" /><path clip-path="url(#clip110)" d="M 0 0 M1481.16 1538.54 L1468.27 1555.88 L1481.83 1574.19 L1474.92 1574.19 L1464.54 1560.18 L1454.17 1574.19 L1447.26 1574.19 L1461.11 1555.53 L1448.44 1538.54 L1455.35 1538.54 L1464.8 1551.24 L1474.25 1538.54 L1481.16 1538.54 Z" fill="#000000" fill-rule="evenodd" fill-opacity="1" /><path clip-path="url(#clip110)" d="M 0 0 M1517.19 1585.01 L1517.19 1589.56 L1483.32 1589.56 L1483.32 1585.01 L1517.19 1585.01 Z" fill="#000000" fill-rule="evenodd" fill-opacity="1" /><path clip-path="url(#clip110)" d="M 0 0 M1528.49 1528.42 L1528.49 1538.54 L1540.55 1538.54 L1540.55 1543.09 L1528.49 1543.09 L1528.49 1562.44 Q1528.49 1566.8 1529.67 1568.04 Q1530.88 1569.28 1534.54 1569.28 L1540.55 1569.28 L1540.55 1574.19 L1534.54 1574.19 Q1527.76 1574.19 1525.18 1571.67 Q1522.6 1569.12 1522.6 1562.44 L1522.6 1543.09 L1518.3 1543.09 L1518.3 1538.54 L1522.6 1538.54 L1522.6 1528.42 L1528.49 1528.42 Z" fill="#000000" fill-rule="evenodd" fill-opacity="1" /><path clip-path="url(#clip110)" d="M 0 0 M1568.91 1544.01 Q1567.92 1543.44 1566.75 1543.18 Q1565.6 1542.9 1564.2 1542.9 Q1559.23 1542.9 1556.56 1546.14 Q1553.92 1549.36 1553.92 1555.41 L1553.92 1574.19 L1548.03 1574.19 L1548.03 1538.54 L1553.92 1538.54 L1553.92 1544.08 Q1555.76 1540.83 1558.72 1539.27 Q1561.69 1537.68 1565.92 1537.68 Q1566.52 1537.68 1567.26 1537.77 Q1567.99 1537.84 1568.88 1538 L1568.91 1544.01 Z" fill="#000000" fill-rule="evenodd" fill-opacity="1" /><path clip-path="url(#clip110)" d="M 0 0 M1574.45 1560.12 L1574.45 1538.54 L1580.3 1538.54 L1580.3 1559.89 Q1580.3 1564.96 1582.28 1567.5 Q1584.25 1570.02 1588.2 1570.02 Q1592.94 1570.02 1595.68 1566.99 Q1598.45 1563.97 1598.45 1558.75 L1598.45 1538.54 L1604.3 1538.54 L1604.3 1574.19 L1598.45 1574.19 L1598.45 1568.71 Q1596.31 1571.96 1593.48 1573.55 Q1590.68 1575.11 1586.96 1575.11 Q1580.81 1575.11 1577.63 1571.29 Q1574.45 1567.47 1574.45 1560.12 M1589.18 1537.68 L1589.18 1537.68 Z" fill="#000000" fill-rule="evenodd" fill-opacity="1" /><path clip-path="url(#clip110)" d="M 0 0 M1646.86 1554.9 L1646.86 1557.76 L1619.93 1557.76 Q1620.31 1563.81 1623.56 1566.99 Q1626.84 1570.14 1632.66 1570.14 Q1636.04 1570.14 1639.19 1569.32 Q1642.37 1568.49 1645.49 1566.83 L1645.49 1572.37 Q1642.34 1573.71 1639.03 1574.41 Q1635.72 1575.11 1632.31 1575.11 Q1623.78 1575.11 1618.79 1570.14 Q1613.82 1565.18 1613.82 1556.71 Q1613.82 1547.96 1618.53 1542.83 Q1623.27 1537.68 1631.29 1537.68 Q1638.49 1537.68 1642.66 1542.33 Q1646.86 1546.94 1646.86 1554.9 M1641 1553.18 Q1640.94 1548.37 1638.3 1545.51 Q1635.69 1542.64 1631.36 1542.64 Q1626.46 1542.64 1623.5 1545.41 Q1620.57 1548.18 1620.12 1553.21 L1641 1553.18 Z" fill="#000000" fill-rule="evenodd" fill-opacity="1" /><path clip-path="url(#clip110)" d="M 0 0 M1664.01 1524.37 L1664.01 1589.56 L1658.6 1589.56 L1658.6 1524.37 L1664.01 1524.37 Z" fill="#000000" fill-rule="evenodd" fill-opacity="1" /><path clip-path="url(#clip110)" d="M 0 0 M1705.52 1585.01 L1705.52 1589.56 L1671.65 1589.56 L1671.65 1585.01 L1705.52 1585.01 Z" fill="#000000" fill-rule="evenodd" fill-opacity="1" /><path clip-path="url(#clip110)" d="M 0 0 M1717.39 1568.77 L1739.83 1568.77 L1739.83 1574.19 L1709.66 1574.19 L1709.66 1568.77 Q1713.32 1564.99 1719.62 1558.62 Q1725.95 1552.22 1727.58 1550.38 Q1730.66 1546.91 1731.87 1544.52 Q1733.11 1542.1 1733.11 1539.78 Q1733.11 1535.99 1730.44 1533.6 Q1727.8 1531.22 1723.53 1531.22 Q1720.51 1531.22 1717.14 1532.27 Q1713.79 1533.32 1709.97 1535.45 L1709.97 1528.96 Q1713.86 1527.4 1717.23 1526.6 Q1720.6 1525.81 1723.41 1525.81 Q1730.79 1525.81 1735.18 1529.5 Q1739.57 1533.19 1739.57 1539.37 Q1739.57 1542.29 1738.46 1544.94 Q1737.38 1547.54 1734.48 1551.11 Q1733.69 1552.03 1729.42 1556.46 Q1725.16 1560.85 1717.39 1568.77 Z" fill="#000000" fill-rule="evenodd" fill-opacity="1" /><polyline clip-path="url(#clip112)" style="stroke:#000000; stroke-width:2; stroke-opacity:0.1; fill:none" points="
  252.764,1299.78 2352.76,1299.78 
  "/>
<polyline clip-path="url(#clip112)" style="stroke:#000000; stroke-width:2; stroke-opacity:0.1; fill:none" points="
  252.764,1034.77 2352.76,1034.77 
  "/>
<polyline clip-path="url(#clip112)" style="stroke:#000000; stroke-width:2; stroke-opacity:0.1; fill:none" points="
  252.764,769.761 2352.76,769.761 
  "/>
<polyline clip-path="url(#clip112)" style="stroke:#000000; stroke-width:2; stroke-opacity:0.1; fill:none" points="
  252.764,504.753 2352.76,504.753 
  "/>
<polyline clip-path="url(#clip112)" style="stroke:#000000; stroke-width:2; stroke-opacity:0.1; fill:none" points="
  252.764,239.744 2352.76,239.744 
  "/>
<polyline clip-path="url(#clip110)" style="stroke:#000000; stroke-width:4; stroke-opacity:1; fill:none" points="
  252.764,1410.9 252.764,47.2441 
  "/>
<polyline clip-path="url(#clip110)" style="stroke:#000000; stroke-width:4; stroke-opacity:1; fill:none" points="
  252.764,1299.78 277.964,1299.78 
  "/>
<polyline clip-path="url(#clip110)" style="stroke:#000000; stroke-width:4; stroke-opacity:1; fill:none" points="
  252.764,1034.77 277.964,1034.77 
  "/>
<polyline clip-path="url(#clip110)" style="stroke:#000000; stroke-width:4; stroke-opacity:1; fill:none" points="
  252.764,769.761 277.964,769.761 
  "/>
<polyline clip-path="url(#clip110)" style="stroke:#000000; stroke-width:4; stroke-opacity:1; fill:none" points="
  252.764,504.753 277.964,504.753 
  "/>
<polyline clip-path="url(#clip110)" style="stroke:#000000; stroke-width:4; stroke-opacity:1; fill:none" points="
  252.764,239.744 277.964,239.744 
  "/>
<path clip-path="url(#clip110)" d="M 0 0 M114.931 1319.57 L122.57 1319.57 L122.57 1293.21 L114.26 1294.87 L114.26 1290.61 L122.524 1288.95 L127.2 1288.95 L127.2 1319.57 L134.839 1319.57 L134.839 1323.51 L114.931 1323.51 L114.931 1319.57 Z" fill="#000000" fill-rule="evenodd" fill-opacity="1" /><path clip-path="url(#clip110)" d="M 0 0 M154.283 1292.03 Q150.672 1292.03 148.843 1295.59 Q147.038 1299.13 147.038 1306.26 Q147.038 1313.37 148.843 1316.93 Q150.672 1320.47 154.283 1320.47 Q157.917 1320.47 159.723 1316.93 Q161.552 1313.37 161.552 1306.26 Q161.552 1299.13 159.723 1295.59 Q157.917 1292.03 154.283 1292.03 M154.283 1288.32 Q160.093 1288.32 163.149 1292.93 Q166.227 1297.51 166.227 1306.26 Q166.227 1314.99 163.149 1319.59 Q160.093 1324.18 154.283 1324.18 Q148.473 1324.18 145.394 1319.59 Q142.339 1314.99 142.339 1306.26 Q142.339 1297.51 145.394 1292.93 Q148.473 1288.32 154.283 1288.32 Z" fill="#000000" fill-rule="evenodd" fill-opacity="1" /><path clip-path="url(#clip110)" d="M 0 0 M166.227 1282.42 L190.339 1282.42 L190.339 1285.62 L166.227 1285.62 L166.227 1282.42 Z" fill="#000000" fill-rule="evenodd" fill-opacity="1" /><path clip-path="url(#clip110)" d="M 0 0 M208.978 1271.33 L199.386 1286.32 L208.978 1286.32 L208.978 1271.33 M207.981 1268.02 L212.758 1268.02 L212.758 1286.32 L216.764 1286.32 L216.764 1289.48 L212.758 1289.48 L212.758 1296.1 L208.978 1296.1 L208.978 1289.48 L196.301 1289.48 L196.301 1285.81 L207.981 1268.02 Z" fill="#000000" fill-rule="evenodd" fill-opacity="1" /><path clip-path="url(#clip110)" d="M 0 0 M115.853 1054.56 L123.492 1054.56 L123.492 1028.2 L115.182 1029.86 L115.182 1025.6 L123.446 1023.94 L128.121 1023.94 L128.121 1054.56 L135.76 1054.56 L135.76 1058.5 L115.853 1058.5 L115.853 1054.56 Z" fill="#000000" fill-rule="evenodd" fill-opacity="1" /><path clip-path="url(#clip110)" d="M 0 0 M155.205 1027.02 Q151.594 1027.02 149.765 1030.58 Q147.959 1034.12 147.959 1041.25 Q147.959 1048.36 149.765 1051.92 Q151.594 1055.47 155.205 1055.47 Q158.839 1055.47 160.644 1051.92 Q162.473 1048.36 162.473 1041.25 Q162.473 1034.12 160.644 1030.58 Q158.839 1027.02 155.205 1027.02 M155.205 1023.31 Q161.015 1023.31 164.07 1027.92 Q167.149 1032.5 167.149 1041.25 Q167.149 1049.98 164.07 1054.59 Q161.015 1059.17 155.205 1059.17 Q149.395 1059.17 146.316 1054.59 Q143.26 1049.98 143.26 1041.25 Q143.26 1032.5 146.316 1027.92 Q149.395 1023.31 155.205 1023.31 Z" fill="#000000" fill-rule="evenodd" fill-opacity="1" /><path clip-path="url(#clip110)" d="M 0 0 M167.149 1017.41 L191.261 1017.41 L191.261 1020.61 L167.149 1020.61 L167.149 1017.41 Z" fill="#000000" fill-rule="evenodd" fill-opacity="1" /><path clip-path="url(#clip110)" d="M 0 0 M210.971 1015.95 Q213.698 1016.53 215.222 1018.37 Q216.764 1020.22 216.764 1022.92 Q216.764 1027.08 213.905 1029.36 Q211.046 1031.63 205.78 1031.63 Q204.012 1031.63 202.132 1031.28 Q200.27 1030.94 198.276 1030.24 L198.276 1026.57 Q199.856 1027.5 201.737 1027.97 Q203.617 1028.44 205.667 1028.44 Q209.241 1028.44 211.103 1027.03 Q212.984 1025.61 212.984 1022.92 Q212.984 1020.44 211.234 1019.05 Q209.504 1017.64 206.401 1017.64 L203.128 1017.64 L203.128 1014.52 L206.551 1014.52 Q209.354 1014.52 210.84 1013.41 Q212.325 1012.28 212.325 1010.17 Q212.325 1008.01 210.783 1006.86 Q209.26 1005.7 206.401 1005.7 Q204.84 1005.7 203.053 1006.04 Q201.266 1006.37 199.122 1007.09 L199.122 1003.7 Q201.285 1003.1 203.166 1002.8 Q205.066 1002.5 206.739 1002.5 Q211.065 1002.5 213.585 1004.47 Q216.106 1006.43 216.106 1009.78 Q216.106 1012.11 214.77 1013.73 Q213.435 1015.33 210.971 1015.95 Z" fill="#000000" fill-rule="evenodd" fill-opacity="1" /><path clip-path="url(#clip110)" d="M 0 0 M116.624 789.554 L124.263 789.554 L124.263 763.188 L115.953 764.855 L115.953 760.596 L124.217 758.929 L128.893 758.929 L128.893 789.554 L136.531 789.554 L136.531 793.489 L116.624 793.489 L116.624 789.554 Z" fill="#000000" fill-rule="evenodd" fill-opacity="1" /><path clip-path="url(#clip110)" d="M 0 0 M155.976 762.008 Q152.365 762.008 150.536 765.573 Q148.73 769.114 148.73 776.244 Q148.73 783.35 150.536 786.915 Q152.365 790.457 155.976 790.457 Q159.61 790.457 161.416 786.915 Q163.244 783.35 163.244 776.244 Q163.244 769.114 161.416 765.573 Q159.61 762.008 155.976 762.008 M155.976 758.304 Q161.786 758.304 164.841 762.91 Q167.92 767.494 167.92 776.244 Q167.92 784.971 164.841 789.577 Q161.786 794.16 155.976 794.16 Q150.166 794.16 147.087 789.577 Q144.031 784.971 144.031 776.244 Q144.031 767.494 147.087 762.91 Q150.166 758.304 155.976 758.304 Z" fill="#000000" fill-rule="evenodd" fill-opacity="1" /><path clip-path="url(#clip110)" d="M 0 0 M167.92 752.405 L192.032 752.405 L192.032 755.603 L167.92 755.603 L167.92 752.405 Z" fill="#000000" fill-rule="evenodd" fill-opacity="1" /><path clip-path="url(#clip110)" d="M 0 0 M203.504 762.881 L216.764 762.881 L216.764 766.079 L198.934 766.079 L198.934 762.881 Q201.097 760.643 204.821 756.882 Q208.564 753.101 209.523 752.01 Q211.347 749.96 212.062 748.55 Q212.796 747.12 212.796 745.747 Q212.796 743.509 211.216 742.099 Q209.655 740.688 207.134 740.688 Q205.348 740.688 203.354 741.309 Q201.379 741.929 199.122 743.19 L199.122 739.353 Q201.417 738.431 203.41 737.961 Q205.404 737.491 207.059 737.491 Q211.423 737.491 214.018 739.673 Q216.613 741.854 216.613 745.503 Q216.613 747.233 215.955 748.794 Q215.316 750.337 213.604 752.443 Q213.134 752.988 210.614 755.603 Q208.094 758.198 203.504 762.881 Z" fill="#000000" fill-rule="evenodd" fill-opacity="1" /><path clip-path="url(#clip110)" d="M 0 0 M116.323 524.545 L123.962 524.545 L123.962 498.179 L115.652 499.846 L115.652 495.587 L123.916 493.92 L128.592 493.92 L128.592 524.545 L136.231 524.545 L136.231 528.48 L116.323 528.48 L116.323 524.545 Z" fill="#000000" fill-rule="evenodd" fill-opacity="1" /><path clip-path="url(#clip110)" d="M 0 0 M155.675 496.999 Q152.064 496.999 150.235 500.564 Q148.43 504.105 148.43 511.235 Q148.43 518.341 150.235 521.906 Q152.064 525.448 155.675 525.448 Q159.309 525.448 161.115 521.906 Q162.943 518.341 162.943 511.235 Q162.943 504.105 161.115 500.564 Q159.309 496.999 155.675 496.999 M155.675 493.295 Q161.485 493.295 164.541 497.902 Q167.619 502.485 167.619 511.235 Q167.619 519.962 164.541 524.568 Q161.485 529.151 155.675 529.151 Q149.865 529.151 146.786 524.568 Q143.73 519.962 143.73 511.235 Q143.73 502.485 146.786 497.902 Q149.865 493.295 155.675 493.295 Z" fill="#000000" fill-rule="evenodd" fill-opacity="1" /><path clip-path="url(#clip110)" d="M 0 0 M167.619 487.396 L191.731 487.396 L191.731 490.594 L167.619 490.594 L167.619 487.396 Z" fill="#000000" fill-rule="evenodd" fill-opacity="1" /><path clip-path="url(#clip110)" d="M 0 0 M200.589 497.872 L206.796 497.872 L206.796 476.45 L200.044 477.804 L200.044 474.344 L206.758 472.99 L210.557 472.99 L210.557 497.872 L216.764 497.872 L216.764 501.07 L200.589 501.07 L200.589 497.872 Z" fill="#000000" fill-rule="evenodd" fill-opacity="1" /><path clip-path="url(#clip110)" d="M 0 0 M146.058 259.536 L153.697 259.536 L153.697 233.17 L145.387 234.837 L145.387 230.578 L153.651 228.911 L158.327 228.911 L158.327 259.536 L165.966 259.536 L165.966 263.471 L146.058 263.471 L146.058 259.536 Z" fill="#000000" fill-rule="evenodd" fill-opacity="1" /><path clip-path="url(#clip110)" d="M 0 0 M185.41 231.99 Q181.799 231.99 179.97 235.555 Q178.165 239.096 178.165 246.226 Q178.165 253.332 179.97 256.897 Q181.799 260.439 185.41 260.439 Q189.044 260.439 190.85 256.897 Q192.678 253.332 192.678 246.226 Q192.678 239.096 190.85 235.555 Q189.044 231.99 185.41 231.99 M185.41 228.286 Q191.22 228.286 194.276 232.893 Q197.354 237.476 197.354 246.226 Q197.354 254.953 194.276 259.559 Q191.22 264.142 185.41 264.142 Q179.6 264.142 176.521 259.559 Q173.466 254.953 173.466 246.226 Q173.466 237.476 176.521 232.893 Q179.6 228.286 185.41 228.286 Z" fill="#000000" fill-rule="evenodd" fill-opacity="1" /><path clip-path="url(#clip110)" d="M 0 0 M207.059 210.482 Q204.125 210.482 202.639 213.379 Q201.172 216.256 201.172 222.049 Q201.172 227.823 202.639 230.719 Q204.125 233.597 207.059 233.597 Q210.012 233.597 211.479 230.719 Q212.965 227.823 212.965 222.049 Q212.965 216.256 211.479 213.379 Q210.012 210.482 207.059 210.482 M207.059 207.473 Q211.78 207.473 214.263 211.216 Q216.764 214.94 216.764 222.049 Q216.764 229.14 214.263 232.882 Q211.78 236.606 207.059 236.606 Q202.338 236.606 199.837 232.882 Q197.354 229.14 197.354 222.049 Q197.354 214.94 199.837 211.216 Q202.338 207.473 207.059 207.473 Z" fill="#000000" fill-rule="evenodd" fill-opacity="1" /><path clip-path="url(#clip110)" d="M 0 0 M16.4842 1063.09 L16.4842 1053.51 L48.8219 1041.39 L16.4842 1029.2 L16.4842 1019.62 L64.0042 1019.62 L64.0042 1025.89 L22.277 1025.89 L54.8694 1038.14 L54.8694 1044.6 L22.277 1056.86 L64.0042 1056.86 L64.0042 1063.09 L16.4842 1063.09 Z" fill="#000000" fill-rule="evenodd" fill-opacity="1" /><path clip-path="url(#clip110)" d="M 0 0 M44.7161 976.617 L47.5806 976.617 L47.5806 1003.54 Q53.6281 1003.16 56.8109 999.915 Q59.9619 996.637 59.9619 990.812 Q59.9619 987.438 59.1344 984.287 Q58.3069 981.105 56.6518 977.985 L62.1899 977.985 Q63.5267 981.136 64.227 984.447 Q64.9272 987.757 64.9272 991.162 Q64.9272 999.692 59.9619 1004.69 Q54.9967 1009.65 46.5303 1009.65 Q37.7774 1009.65 32.6531 1004.94 Q27.4968 1000.2 27.4968 992.181 Q27.4968 984.988 32.1438 980.818 Q36.7589 976.617 44.7161 976.617 M42.9973 982.473 Q38.1912 982.537 35.3266 985.179 Q32.4621 987.789 32.4621 992.117 Q32.4621 997.019 35.2312 999.979 Q38.0002 1002.91 43.0292 1003.35 L42.9973 982.473 Z" fill="#000000" fill-rule="evenodd" fill-opacity="1" /><path clip-path="url(#clip110)" d="M 0 0 M33.7671 943.547 L14.479 943.547 L14.479 937.69 L64.0042 937.69 L64.0042 943.547 L58.657 943.547 Q61.8398 945.393 63.3994 948.226 Q64.9272 951.027 64.9272 954.973 Q64.9272 961.435 59.771 965.509 Q54.6147 969.551 46.212 969.551 Q37.8093 969.551 32.6531 965.509 Q27.4968 961.435 27.4968 954.973 Q27.4968 951.027 29.0564 948.226 Q30.5842 945.393 33.7671 943.547 M46.212 963.503 Q52.6732 963.503 56.3653 960.862 Q60.0256 958.188 60.0256 953.541 Q60.0256 948.894 56.3653 946.221 Q52.6732 943.547 46.212 943.547 Q39.7508 943.547 36.0905 946.221 Q32.3984 948.894 32.3984 953.541 Q32.3984 958.188 36.0905 960.862 Q39.7508 963.503 46.212 963.503 Z" fill="#000000" fill-rule="evenodd" fill-opacity="1" /><path clip-path="url(#clip110)" d="M 0 0 M28.3562 925.627 L28.3562 919.771 L64.0042 919.771 L64.0042 925.627 L28.3562 925.627 M14.479 925.627 L14.479 919.771 L21.895 919.771 L21.895 925.627 L14.479 925.627 Z" fill="#000000" fill-rule="evenodd" fill-opacity="1" /><path clip-path="url(#clip110)" d="M 0 0 M46.0847 891.316 Q46.0847 898.414 47.7079 901.151 Q49.3312 903.889 53.2461 903.889 Q56.3653 903.889 58.2114 901.852 Q60.0256 899.783 60.0256 896.25 Q60.0256 891.38 56.5881 888.452 Q53.1188 885.492 47.3897 885.492 L46.0847 885.492 L46.0847 891.316 M43.6657 879.635 L64.0042 879.635 L64.0042 885.492 L58.5933 885.492 Q61.8398 887.497 63.3994 890.489 Q64.9272 893.481 64.9272 897.809 Q64.9272 903.284 61.8716 906.53 Q58.7843 909.745 53.6281 909.745 Q47.6125 909.745 44.5569 905.735 Q41.5014 901.692 41.5014 893.703 L41.5014 885.492 L40.9285 885.492 Q36.8862 885.492 34.6901 888.165 Q32.4621 890.807 32.4621 895.613 Q32.4621 898.669 33.1941 901.565 Q33.9262 904.462 35.3903 907.135 L29.9795 907.135 Q28.7381 903.92 28.1334 900.897 Q27.4968 897.873 27.4968 895.008 Q27.4968 887.274 31.5072 883.455 Q35.5176 879.635 43.6657 879.635 Z" fill="#000000" fill-rule="evenodd" fill-opacity="1" /><path clip-path="url(#clip110)" d="M 0 0 M42.4881 837.94 L64.0042 837.94 L64.0042 843.796 L42.679 843.796 Q37.6183 843.796 35.1038 845.77 Q32.5894 847.743 32.5894 851.69 Q32.5894 856.432 35.6131 859.169 Q38.6368 861.907 43.8567 861.907 L64.0042 861.907 L64.0042 867.795 L28.3562 867.795 L28.3562 861.907 L33.8944 861.907 Q30.6797 859.806 29.0883 856.973 Q27.4968 854.109 27.4968 850.385 Q27.4968 844.242 31.3163 841.091 Q35.1038 837.94 42.4881 837.94 Z" fill="#000000" fill-rule="evenodd" fill-opacity="1" /><path clip-path="url(#clip110)" d="M 0 0 M16.4842 809.517 L16.4842 803.024 L56.6518 793.03 L16.4842 783.067 L16.4842 775.842 L56.6518 765.848 L16.4842 755.886 L16.4842 749.361 L64.0042 761.297 L64.0042 769.381 L22.7544 779.407 L64.0042 789.529 L64.0042 797.613 L16.4842 809.517 Z" fill="#000000" fill-rule="evenodd" fill-opacity="1" /><path clip-path="url(#clip110)" d="M 0 0 M46.0847 729.054 Q46.0847 736.152 47.7079 738.889 Q49.3312 741.627 53.2461 741.627 Q56.3653 741.627 58.2114 739.59 Q60.0256 737.521 60.0256 733.988 Q60.0256 729.118 56.5881 726.19 Q53.1188 723.23 47.3897 723.23 L46.0847 723.23 L46.0847 729.054 M43.6657 717.373 L64.0042 717.373 L64.0042 723.23 L58.5933 723.23 Q61.8398 725.235 63.3994 728.227 Q64.9272 731.219 64.9272 735.547 Q64.9272 741.022 61.8716 744.268 Q58.7843 747.483 53.6281 747.483 Q47.6125 747.483 44.5569 743.473 Q41.5014 739.431 41.5014 731.442 L41.5014 723.23 L40.9285 723.23 Q36.8862 723.23 34.6901 725.903 Q32.4621 728.545 32.4621 733.351 Q32.4621 736.407 33.1941 739.303 Q33.9262 742.2 35.3903 744.873 L29.9795 744.873 Q28.7381 741.659 28.1334 738.635 Q27.4968 735.611 27.4968 732.747 Q27.4968 725.012 31.5072 721.193 Q35.5176 717.373 43.6657 717.373 Z" fill="#000000" fill-rule="evenodd" fill-opacity="1" /><path clip-path="url(#clip110)" d="M 0 0 M14.479 705.31 L14.479 699.454 L64.0042 699.454 L64.0042 705.31 L14.479 705.31 Z" fill="#000000" fill-rule="evenodd" fill-opacity="1" /><path clip-path="url(#clip110)" d="M 0 0 M14.479 687.2 L14.479 681.343 L64.0042 681.343 L64.0042 687.2 L14.479 687.2 Z" fill="#000000" fill-rule="evenodd" fill-opacity="1" /><path clip-path="url(#clip110)" d="M 0 0 M16.4842 654.703 L16.4842 614.504 L21.895 614.504 L21.895 631.373 L64.0042 631.373 L64.0042 637.834 L21.895 637.834 L21.895 654.703 L16.4842 654.703 Z" fill="#000000" fill-rule="evenodd" fill-opacity="1" /><path clip-path="url(#clip110)" d="M 0 0 M28.3562 610.557 L28.3562 604.7 L64.0042 604.7 L64.0042 610.557 L28.3562 610.557 M14.479 610.557 L14.479 604.7 L21.895 604.7 L21.895 610.557 L14.479 610.557 Z" fill="#000000" fill-rule="evenodd" fill-opacity="1" /><path clip-path="url(#clip110)" d="M 0 0 M35.1993 564.692 Q31.2526 562.496 29.3747 559.44 Q27.4968 556.385 27.4968 552.247 Q27.4968 546.677 31.4117 543.653 Q35.2948 540.63 42.4881 540.63 L64.0042 540.63 L64.0042 546.518 L42.679 546.518 Q37.5546 546.518 35.072 548.332 Q32.5894 550.146 32.5894 553.87 Q32.5894 558.422 35.6131 561.063 Q38.6368 563.705 43.8567 563.705 L64.0042 563.705 L64.0042 569.594 L42.679 569.594 Q37.5228 569.594 35.072 571.408 Q32.5894 573.222 32.5894 577.01 Q32.5894 581.497 35.6449 584.139 Q38.6686 586.781 43.8567 586.781 L64.0042 586.781 L64.0042 592.669 L28.3562 592.669 L28.3562 586.781 L33.8944 586.781 Q30.616 584.776 29.0564 581.975 Q27.4968 579.174 27.4968 575.323 Q27.4968 571.44 29.4702 568.734 Q31.4436 565.997 35.1993 564.692 Z" fill="#000000" fill-rule="evenodd" fill-opacity="1" /><path clip-path="url(#clip110)" d="M 0 0 M44.7161 498.457 L47.5806 498.457 L47.5806 525.384 Q53.6281 525.002 56.8109 521.755 Q59.9619 518.477 59.9619 512.652 Q59.9619 509.278 59.1344 506.127 Q58.3069 502.945 56.6518 499.825 L62.1899 499.825 Q63.5267 502.976 64.227 506.287 Q64.9272 509.597 64.9272 513.002 Q64.9272 521.532 59.9619 526.529 Q54.9967 531.495 46.5303 531.495 Q37.7774 531.495 32.6531 526.784 Q27.4968 522.042 27.4968 514.021 Q27.4968 506.828 32.1438 502.658 Q36.7589 498.457 44.7161 498.457 M42.9973 504.313 Q38.1912 504.377 35.3266 507.019 Q32.4621 509.629 32.4621 513.957 Q32.4621 518.859 35.2312 521.819 Q38.0002 524.747 43.0292 525.193 L42.9973 504.313 Z" fill="#000000" fill-rule="evenodd" fill-opacity="1" /><path clip-path="url(#clip110)" d="M 0 0 M14.479 468.665 L14.479 455.17 L19.0304 455.17 L19.0304 462.809 L68.0464 462.809 L68.0464 455.17 L72.5979 455.17 L72.5979 468.665 L14.479 468.665 Z" fill="#000000" fill-rule="evenodd" fill-opacity="1" /><path clip-path="url(#clip110)" d="M 0 0 M29.4065 419.968 L34.9447 419.968 Q33.6716 422.45 33.035 425.124 Q32.3984 427.797 32.3984 430.662 Q32.3984 435.022 33.7352 437.219 Q35.072 439.383 37.7456 439.383 Q39.7826 439.383 40.9603 437.823 Q42.1061 436.264 43.1565 431.553 L43.6021 429.548 Q44.9389 423.31 47.3897 420.7 Q49.8086 418.058 54.1691 418.058 Q59.1344 418.058 62.0308 422.005 Q64.9272 425.92 64.9272 432.794 Q64.9272 435.659 64.3543 438.778 Q63.8132 441.866 62.6992 445.303 L56.6518 445.303 Q58.3387 442.057 59.198 438.906 Q60.0256 435.755 60.0256 432.667 Q60.0256 428.529 58.6251 426.301 Q57.1929 424.073 54.6147 424.073 Q52.2276 424.073 50.9545 425.697 Q49.6813 427.288 48.5037 432.731 L48.0262 434.768 Q46.8804 440.211 44.5251 442.629 Q42.138 445.048 38.0002 445.048 Q32.9713 445.048 30.2341 441.484 Q27.4968 437.919 27.4968 431.362 Q27.4968 428.116 27.9743 425.251 Q28.4517 422.387 29.4065 419.968 Z" fill="#000000" fill-rule="evenodd" fill-opacity="1" /><path clip-path="url(#clip110)" d="M 0 0 M14.479 395.046 L72.5979 395.046 L72.5979 408.541 L68.0464 408.541 L68.0464 400.934 L19.0304 400.934 L19.0304 408.541 L14.479 408.541 L14.479 395.046 Z" fill="#000000" fill-rule="evenodd" fill-opacity="1" /><polyline clip-path="url(#clip112)" style="stroke:#009af9; stroke-width:4; stroke-opacity:1; fill:none" points="
  2000.52,1030.27 1891.83,987.62 1777.44,939.804 1660.66,886.438 1542.83,827.609 1424.55,769.078 1306.15,729.878 1187.57,650.036 1068.75,562.68 949.964,486.277 
  831.189,404.855 712.422,325.088 593.658,245.328 474.894,165.61 356.131,85.838 
  "/>
<path clip-path="url(#clip112)" d="M1984.52 1014.27 L1984.52 1046.27 L2016.52 1046.27 L2016.52 1014.27 L1984.52 1014.27 Z" fill="#009af9" fill-rule="evenodd" fill-opacity="1" stroke="#000000" stroke-opacity="1" stroke-width="3.2"/>
<path clip-path="url(#clip112)" d="M1875.83 971.62 L1875.83 1003.62 L1907.83 1003.62 L1907.83 971.62 L1875.83 971.62 Z" fill="#009af9" fill-rule="evenodd" fill-opacity="1" stroke="#000000" stroke-opacity="1" stroke-width="3.2"/>
<path clip-path="url(#clip112)" d="M1761.44 923.804 L1761.44 955.804 L1793.44 955.804 L1793.44 923.804 L1761.44 923.804 Z" fill="#009af9" fill-rule="evenodd" fill-opacity="1" stroke="#000000" stroke-opacity="1" stroke-width="3.2"/>
<path clip-path="url(#clip112)" d="M1644.66 870.438 L1644.66 902.438 L1676.66 902.438 L1676.66 870.438 L1644.66 870.438 Z" fill="#009af9" fill-rule="evenodd" fill-opacity="1" stroke="#000000" stroke-opacity="1" stroke-width="3.2"/>
<path clip-path="url(#clip112)" d="M1526.83 811.609 L1526.83 843.609 L1558.83 843.609 L1558.83 811.609 L1526.83 811.609 Z" fill="#009af9" fill-rule="evenodd" fill-opacity="1" stroke="#000000" stroke-opacity="1" stroke-width="3.2"/>
<path clip-path="url(#clip112)" d="M1408.55 753.078 L1408.55 785.078 L1440.55 785.078 L1440.55 753.078 L1408.55 753.078 Z" fill="#009af9" fill-rule="evenodd" fill-opacity="1" stroke="#000000" stroke-opacity="1" stroke-width="3.2"/>
<path clip-path="url(#clip112)" d="M1290.15 713.878 L1290.15 745.878 L1322.15 745.878 L1322.15 713.878 L1290.15 713.878 Z" fill="#009af9" fill-rule="evenodd" fill-opacity="1" stroke="#000000" stroke-opacity="1" stroke-width="3.2"/>
<path clip-path="url(#clip112)" d="M1171.57 634.036 L1171.57 666.036 L1203.57 666.036 L1203.57 634.036 L1171.57 634.036 Z" fill="#009af9" fill-rule="evenodd" fill-opacity="1" stroke="#000000" stroke-opacity="1" stroke-width="3.2"/>
<path clip-path="url(#clip112)" d="M1052.75 546.68 L1052.75 578.68 L1084.75 578.68 L1084.75 546.68 L1052.75 546.68 Z" fill="#009af9" fill-rule="evenodd" fill-opacity="1" stroke="#000000" stroke-opacity="1" stroke-width="3.2"/>
<path clip-path="url(#clip112)" d="M933.964 470.277 L933.964 502.277 L965.964 502.277 L965.964 470.277 L933.964 470.277 Z" fill="#009af9" fill-rule="evenodd" fill-opacity="1" stroke="#000000" stroke-opacity="1" stroke-width="3.2"/>
<path clip-path="url(#clip112)" d="M815.189 388.855 L815.189 420.855 L847.189 420.855 L847.189 388.855 L815.189 388.855 Z" fill="#009af9" fill-rule="evenodd" fill-opacity="1" stroke="#000000" stroke-opacity="1" stroke-width="3.2"/>
<path clip-path="url(#clip112)" d="M696.422 309.088 L696.422 341.088 L728.422 341.088 L728.422 309.088 L696.422 309.088 Z" fill="#009af9" fill-rule="evenodd" fill-opacity="1" stroke="#000000" stroke-opacity="1" stroke-width="3.2"/>
<path clip-path="url(#clip112)" d="M577.658 229.328 L577.658 261.328 L609.658 261.328 L609.658 229.328 L577.658 229.328 Z" fill="#009af9" fill-rule="evenodd" fill-opacity="1" stroke="#000000" stroke-opacity="1" stroke-width="3.2"/>
<path clip-path="url(#clip112)" d="M458.894 149.61 L458.894 181.61 L490.894 181.61 L490.894 149.61 L458.894 149.61 Z" fill="#009af9" fill-rule="evenodd" fill-opacity="1" stroke="#000000" stroke-opacity="1" stroke-width="3.2"/>
<path clip-path="url(#clip112)" d="M340.131 69.838 L340.131 101.838 L372.131 101.838 L372.131 69.838 L340.131 69.838 Z" fill="#009af9" fill-rule="evenodd" fill-opacity="1" stroke="#000000" stroke-opacity="1" stroke-width="3.2"/>
<polyline clip-path="url(#clip112)" style="stroke:#e26f46; stroke-width:4; stroke-opacity:1; fill:none" points="
  2086.61,1360.83 1965.24,1282.78 1845.83,1206.58 1726.86,1128.36 1608.02,1049.23 1489.22,969.774 1370.44,890.17 1251.67,810.863 1132.91,730.166 1014.15,650.745 
  895.385,563.244 776.624,483.451 657.863,404.538 539.102,324.173 420.343,244.129 
  "/>
<path clip-path="url(#clip112)" d="M2086.61 1344.83 L2082.85 1355.64 L2071.39 1355.88 L2080.53 1362.81 L2077.2 1373.77 L2086.61 1367.23 L2096.01 1373.77 L2092.69 1362.81 L2101.82 1355.88 L2090.37 1355.64 L2086.61 1344.83 Z" fill="#e26f46" fill-rule="evenodd" fill-opacity="1" stroke="#000000" stroke-opacity="1" stroke-width="3.2"/>
<path clip-path="url(#clip112)" d="M1965.24 1266.78 L1961.48 1277.59 L1950.03 1277.83 L1959.16 1284.76 L1955.84 1295.72 L1965.24 1289.18 L1974.65 1295.72 L1971.32 1284.76 L1980.46 1277.83 L1969 1277.59 L1965.24 1266.78 Z" fill="#e26f46" fill-rule="evenodd" fill-opacity="1" stroke="#000000" stroke-opacity="1" stroke-width="3.2"/>
<path clip-path="url(#clip112)" d="M1845.83 1190.58 L1842.07 1201.4 L1830.61 1201.64 L1839.75 1208.57 L1836.42 1219.53 L1845.83 1212.98 L1855.24 1219.53 L1851.91 1208.57 L1861.05 1201.64 L1849.59 1201.4 L1845.83 1190.58 Z" fill="#e26f46" fill-rule="evenodd" fill-opacity="1" stroke="#000000" stroke-opacity="1" stroke-width="3.2"/>
<path clip-path="url(#clip112)" d="M1726.86 1112.36 L1723.1 1123.17 L1711.64 1123.41 L1720.78 1130.34 L1717.45 1141.3 L1726.86 1134.76 L1736.27 1141.3 L1732.94 1130.34 L1742.07 1123.41 L1730.62 1123.17 L1726.86 1112.36 Z" fill="#e26f46" fill-rule="evenodd" fill-opacity="1" stroke="#000000" stroke-opacity="1" stroke-width="3.2"/>
<path clip-path="url(#clip112)" d="M1608.02 1033.23 L1604.26 1044.04 L1592.8 1044.28 L1601.94 1051.21 L1598.61 1062.17 L1608.02 1055.63 L1617.42 1062.17 L1614.1 1051.21 L1623.23 1044.28 L1611.78 1044.04 L1608.02 1033.23 Z" fill="#e26f46" fill-rule="evenodd" fill-opacity="1" stroke="#000000" stroke-opacity="1" stroke-width="3.2"/>
<path clip-path="url(#clip112)" d="M1489.22 953.774 L1485.46 964.59 L1474 964.83 L1483.14 971.758 L1479.81 982.718 L1489.22 976.174 L1498.63 982.718 L1495.3 971.758 L1504.44 964.83 L1492.98 964.59 L1489.22 953.774 Z" fill="#e26f46" fill-rule="evenodd" fill-opacity="1" stroke="#000000" stroke-opacity="1" stroke-width="3.2"/>
<path clip-path="url(#clip112)" d="M1370.44 874.17 L1366.68 884.986 L1355.23 885.226 L1364.36 892.154 L1361.03 903.114 L1370.44 896.57 L1379.85 903.114 L1376.52 892.154 L1385.66 885.226 L1374.2 884.986 L1370.44 874.17 Z" fill="#e26f46" fill-rule="evenodd" fill-opacity="1" stroke="#000000" stroke-opacity="1" stroke-width="3.2"/>
<path clip-path="url(#clip112)" d="M1251.67 794.863 L1247.91 805.679 L1236.46 805.919 L1245.59 812.847 L1242.27 823.807 L1251.67 817.263 L1261.08 823.807 L1257.75 812.847 L1266.89 805.919 L1255.43 805.679 L1251.67 794.863 Z" fill="#e26f46" fill-rule="evenodd" fill-opacity="1" stroke="#000000" stroke-opacity="1" stroke-width="3.2"/>
<path clip-path="url(#clip112)" d="M1132.91 714.166 L1129.15 724.982 L1117.69 725.222 L1126.83 732.15 L1123.5 743.11 L1132.91 736.566 L1142.32 743.11 L1138.99 732.15 L1148.12 725.222 L1136.67 724.982 L1132.91 714.166 Z" fill="#e26f46" fill-rule="evenodd" fill-opacity="1" stroke="#000000" stroke-opacity="1" stroke-width="3.2"/>
<path clip-path="url(#clip112)" d="M1014.15 634.745 L1010.39 645.561 L998.93 645.801 L1008.07 652.729 L1004.74 663.689 L1014.15 657.145 L1023.55 663.689 L1020.23 652.729 L1029.36 645.801 L1017.91 645.561 L1014.15 634.745 Z" fill="#e26f46" fill-rule="evenodd" fill-opacity="1" stroke="#000000" stroke-opacity="1" stroke-width="3.2"/>
<path clip-path="url(#clip112)" d="M895.385 547.244 L891.625 558.06 L880.169 558.3 L889.305 565.228 L885.977 576.188 L895.385 569.644 L904.793 576.188 L901.465 565.228 L910.601 558.3 L899.145 558.06 L895.385 547.244 Z" fill="#e26f46" fill-rule="evenodd" fill-opacity="1" stroke="#000000" stroke-opacity="1" stroke-width="3.2"/>
<path clip-path="url(#clip112)" d="M776.624 467.451 L772.864 478.267 L761.408 478.507 L770.544 485.435 L767.216 496.395 L776.624 489.851 L786.032 496.395 L782.704 485.435 L791.84 478.507 L780.384 478.267 L776.624 467.451 Z" fill="#e26f46" fill-rule="evenodd" fill-opacity="1" stroke="#000000" stroke-opacity="1" stroke-width="3.2"/>
<path clip-path="url(#clip112)" d="M657.863 388.538 L654.103 399.354 L642.647 399.594 L651.783 406.522 L648.455 417.482 L657.863 410.938 L667.271 417.482 L663.943 406.522 L673.079 399.594 L661.623 399.354 L657.863 388.538 Z" fill="#e26f46" fill-rule="evenodd" fill-opacity="1" stroke="#000000" stroke-opacity="1" stroke-width="3.2"/>
<path clip-path="url(#clip112)" d="M539.102 308.173 L535.342 318.989 L523.886 319.229 L533.022 326.157 L529.694 337.117 L539.102 330.573 L548.51 337.117 L545.182 326.157 L554.318 319.229 L542.862 318.989 L539.102 308.173 Z" fill="#e26f46" fill-rule="evenodd" fill-opacity="1" stroke="#000000" stroke-opacity="1" stroke-width="3.2"/>
<path clip-path="url(#clip112)" d="M420.343 228.129 L416.583 238.945 L405.127 239.185 L414.263 246.113 L410.935 257.073 L420.343 250.529 L429.751 257.073 L426.423 246.113 L435.559 239.185 L424.103 238.945 L420.343 228.129 Z" fill="#e26f46" fill-rule="evenodd" fill-opacity="1" stroke="#000000" stroke-opacity="1" stroke-width="3.2"/>
<polyline clip-path="url(#clip112)" style="stroke:#3da44d; stroke-width:4; stroke-opacity:1; fill:none" points="
  2293.32,1372.3 2232.76,1288.51 2183.86,1211.31 2139.88,1132.69 2098.16,1053.57 2057.53,974.02 2017.42,894.415 1977.57,814.733 1937.85,734.876 1898.2,654.991 
  1858.58,566.522 1818.98,490.935 1779.38,409.084 1739.79,329.641 1700.2,249.621 
  "/>
<path clip-path="url(#clip112)" d="M2293.32 1388.3 L2279.47 1380.3 L2279.47 1364.3 L2293.32 1356.3 L2307.18 1364.3 L2307.18 1380.3 Z" fill="#3da44d" fill-rule="evenodd" fill-opacity="1" stroke="#000000" stroke-opacity="1" stroke-width="3.2"/>
<path clip-path="url(#clip112)" d="M2232.76 1304.51 L2218.9 1296.51 L2218.9 1280.51 L2232.76 1272.51 L2246.61 1280.51 L2246.61 1296.51 Z" fill="#3da44d" fill-rule="evenodd" fill-opacity="1" stroke="#000000" stroke-opacity="1" stroke-width="3.2"/>
<path clip-path="url(#clip112)" d="M2183.86 1227.31 L2170.01 1219.31 L2170.01 1203.31 L2183.86 1195.31 L2197.72 1203.31 L2197.72 1219.31 Z" fill="#3da44d" fill-rule="evenodd" fill-opacity="1" stroke="#000000" stroke-opacity="1" stroke-width="3.2"/>
<path clip-path="url(#clip112)" d="M2139.88 1148.69 L2126.03 1140.69 L2126.03 1124.69 L2139.88 1116.69 L2153.74 1124.69 L2153.74 1140.69 Z" fill="#3da44d" fill-rule="evenodd" fill-opacity="1" stroke="#000000" stroke-opacity="1" stroke-width="3.2"/>
<path clip-path="url(#clip112)" d="M2098.16 1069.57 L2084.31 1061.57 L2084.31 1045.57 L2098.16 1037.57 L2112.02 1045.57 L2112.02 1061.57 Z" fill="#3da44d" fill-rule="evenodd" fill-opacity="1" stroke="#000000" stroke-opacity="1" stroke-width="3.2"/>
<path clip-path="url(#clip112)" d="M2057.53 990.02 L2043.67 982.02 L2043.67 966.02 L2057.53 958.02 L2071.38 966.02 L2071.38 982.02 Z" fill="#3da44d" fill-rule="evenodd" fill-opacity="1" stroke="#000000" stroke-opacity="1" stroke-width="3.2"/>
<path clip-path="url(#clip112)" d="M2017.42 910.415 L2003.56 902.415 L2003.56 886.415 L2017.42 878.415 L2031.27 886.415 L2031.27 902.415 Z" fill="#3da44d" fill-rule="evenodd" fill-opacity="1" stroke="#000000" stroke-opacity="1" stroke-width="3.2"/>
<path clip-path="url(#clip112)" d="M1977.57 830.733 L1963.71 822.733 L1963.71 806.733 L1977.57 798.733 L1991.43 806.733 L1991.43 822.733 Z" fill="#3da44d" fill-rule="evenodd" fill-opacity="1" stroke="#000000" stroke-opacity="1" stroke-width="3.2"/>
<path clip-path="url(#clip112)" d="M1937.85 750.876 L1924 742.876 L1924 726.876 L1937.85 718.876 L1951.71 726.876 L1951.71 742.876 Z" fill="#3da44d" fill-rule="evenodd" fill-opacity="1" stroke="#000000" stroke-opacity="1" stroke-width="3.2"/>
<path clip-path="url(#clip112)" d="M1898.2 670.991 L1884.35 662.991 L1884.35 646.991 L1898.2 638.991 L1912.06 646.991 L1912.06 662.991 Z" fill="#3da44d" fill-rule="evenodd" fill-opacity="1" stroke="#000000" stroke-opacity="1" stroke-width="3.2"/>
<path clip-path="url(#clip112)" d="M1858.58 582.522 L1844.73 574.522 L1844.73 558.522 L1858.58 550.522 L1872.44 558.522 L1872.44 574.522 Z" fill="#3da44d" fill-rule="evenodd" fill-opacity="1" stroke="#000000" stroke-opacity="1" stroke-width="3.2"/>
<path clip-path="url(#clip112)" d="M1818.98 506.935 L1805.12 498.935 L1805.12 482.935 L1818.98 474.935 L1832.84 482.935 L1832.84 498.935 Z" fill="#3da44d" fill-rule="evenodd" fill-opacity="1" stroke="#000000" stroke-opacity="1" stroke-width="3.2"/>
<path clip-path="url(#clip112)" d="M1779.38 425.084 L1765.53 417.084 L1765.53 401.084 L1779.38 393.084 L1793.24 401.084 L1793.24 417.084 Z" fill="#3da44d" fill-rule="evenodd" fill-opacity="1" stroke="#000000" stroke-opacity="1" stroke-width="3.2"/>
<path clip-path="url(#clip112)" d="M1739.79 345.641 L1725.94 337.641 L1725.94 321.641 L1739.79 313.641 L1753.65 321.641 L1753.65 337.641 Z" fill="#3da44d" fill-rule="evenodd" fill-opacity="1" stroke="#000000" stroke-opacity="1" stroke-width="3.2"/>
<path clip-path="url(#clip112)" d="M1700.2 265.621 L1686.35 257.621 L1686.35 241.621 L1700.2 233.621 L1714.06 241.621 L1714.06 257.621 Z" fill="#3da44d" fill-rule="evenodd" fill-opacity="1" stroke="#000000" stroke-opacity="1" stroke-width="3.2"/>
<polyline clip-path="url(#clip112)" style="stroke:#c271d2; stroke-width:4; stroke-opacity:1; fill:none" points="
  2225.78,1028.74 2199.61,1001.15 2167.38,957.322 2131.66,908.282 2094.08,860.049 2055.48,796.994 2016.56,758.027 1977.19,684.56 1937.66,593.798 1898.11,519.357 
  1858.54,439.597 1818.96,359.607 1779.37,279.72 1739.79,199.944 1700.2,120.051 
  "/>
<path clip-path="url(#clip112)" d="M2225.78 1044.74 L2221.25 1033.27 L2209.78 1028.74 L2221.25 1024.21 L2225.78 1012.74 L2230.31 1024.21 L2241.78 1028.74 L2230.31 1033.27 L2225.78 1044.74 Z" fill="#c271d2" fill-rule="evenodd" fill-opacity="1" stroke="#000000" stroke-opacity="1" stroke-width="3.2"/>
<path clip-path="url(#clip112)" d="M2199.61 1017.15 L2195.08 1005.67 L2183.61 1001.15 L2195.08 996.618 L2199.61 985.146 L2204.14 996.618 L2215.61 1001.15 L2204.14 1005.67 L2199.61 1017.15 Z" fill="#c271d2" fill-rule="evenodd" fill-opacity="1" stroke="#000000" stroke-opacity="1" stroke-width="3.2"/>
<path clip-path="url(#clip112)" d="M2167.38 973.322 L2162.86 961.85 L2151.38 957.322 L2162.86 952.794 L2167.38 941.322 L2171.91 952.794 L2183.38 957.322 L2171.91 961.85 L2167.38 973.322 Z" fill="#c271d2" fill-rule="evenodd" fill-opacity="1" stroke="#000000" stroke-opacity="1" stroke-width="3.2"/>
<path clip-path="url(#clip112)" d="M2131.66 924.282 L2127.13 912.81 L2115.66 908.282 L2127.13 903.754 L2131.66 892.282 L2136.18 903.754 L2147.66 908.282 L2136.18 912.81 L2131.66 924.282 Z" fill="#c271d2" fill-rule="evenodd" fill-opacity="1" stroke="#000000" stroke-opacity="1" stroke-width="3.2"/>
<path clip-path="url(#clip112)" d="M2094.08 876.049 L2089.56 864.577 L2078.08 860.049 L2089.56 855.521 L2094.08 844.049 L2098.61 855.521 L2110.08 860.049 L2098.61 864.577 L2094.08 876.049 Z" fill="#c271d2" fill-rule="evenodd" fill-opacity="1" stroke="#000000" stroke-opacity="1" stroke-width="3.2"/>
<path clip-path="url(#clip112)" d="M2055.48 812.994 L2050.95 801.522 L2039.48 796.994 L2050.95 792.466 L2055.48 780.994 L2060.01 792.466 L2071.48 796.994 L2060.01 801.522 L2055.48 812.994 Z" fill="#c271d2" fill-rule="evenodd" fill-opacity="1" stroke="#000000" stroke-opacity="1" stroke-width="3.2"/>
<path clip-path="url(#clip112)" d="M2016.56 774.027 L2012.04 762.555 L2000.56 758.027 L2012.04 753.499 L2016.56 742.027 L2021.09 753.499 L2032.56 758.027 L2021.09 762.555 L2016.56 774.027 Z" fill="#c271d2" fill-rule="evenodd" fill-opacity="1" stroke="#000000" stroke-opacity="1" stroke-width="3.2"/>
<path clip-path="url(#clip112)" d="M1977.19 700.56 L1972.66 689.088 L1961.19 684.56 L1972.66 680.032 L1977.19 668.56 L1981.72 680.032 L1993.19 684.56 L1981.72 689.088 L1977.19 700.56 Z" fill="#c271d2" fill-rule="evenodd" fill-opacity="1" stroke="#000000" stroke-opacity="1" stroke-width="3.2"/>
<path clip-path="url(#clip112)" d="M1937.66 609.798 L1933.14 598.326 L1921.66 593.798 L1933.14 589.27 L1937.66 577.798 L1942.19 589.27 L1953.66 593.798 L1942.19 598.326 L1937.66 609.798 Z" fill="#c271d2" fill-rule="evenodd" fill-opacity="1" stroke="#000000" stroke-opacity="1" stroke-width="3.2"/>
<path clip-path="url(#clip112)" d="M1898.11 535.357 L1893.58 523.885 L1882.11 519.357 L1893.58 514.829 L1898.11 503.357 L1902.64 514.829 L1914.11 519.357 L1902.64 523.885 L1898.11 535.357 Z" fill="#c271d2" fill-rule="evenodd" fill-opacity="1" stroke="#000000" stroke-opacity="1" stroke-width="3.2"/>
<path clip-path="url(#clip112)" d="M1858.54 455.597 L1854.01 444.125 L1842.54 439.597 L1854.01 435.069 L1858.54 423.597 L1863.06 435.069 L1874.54 439.597 L1863.06 444.125 L1858.54 455.597 Z" fill="#c271d2" fill-rule="evenodd" fill-opacity="1" stroke="#000000" stroke-opacity="1" stroke-width="3.2"/>
<path clip-path="url(#clip112)" d="M1818.96 375.607 L1814.43 364.135 L1802.96 359.607 L1814.43 355.079 L1818.96 343.607 L1823.48 355.079 L1834.96 359.607 L1823.48 364.135 L1818.96 375.607 Z" fill="#c271d2" fill-rule="evenodd" fill-opacity="1" stroke="#000000" stroke-opacity="1" stroke-width="3.2"/>
<path clip-path="url(#clip112)" d="M1779.37 295.72 L1774.84 284.248 L1763.37 279.72 L1774.84 275.192 L1779.37 263.72 L1783.9 275.192 L1795.37 279.72 L1783.9 284.248 L1779.37 295.72 Z" fill="#c271d2" fill-rule="evenodd" fill-opacity="1" stroke="#000000" stroke-opacity="1" stroke-width="3.2"/>
<path clip-path="url(#clip112)" d="M1739.79 215.944 L1735.26 204.472 L1723.79 199.944 L1735.26 195.416 L1739.79 183.944 L1744.32 195.416 L1755.79 199.944 L1744.32 204.472 L1739.79 215.944 Z" fill="#c271d2" fill-rule="evenodd" fill-opacity="1" stroke="#000000" stroke-opacity="1" stroke-width="3.2"/>
<path clip-path="url(#clip112)" d="M1700.2 136.051 L1695.67 124.579 L1684.2 120.051 L1695.67 115.523 L1700.2 104.051 L1704.73 115.523 L1716.2 120.051 L1704.73 124.579 L1700.2 136.051 Z" fill="#c271d2" fill-rule="evenodd" fill-opacity="1" stroke="#000000" stroke-opacity="1" stroke-width="3.2"/>
<polyline clip-path="url(#clip112)" style="stroke:#ac8d18; stroke-width:4; stroke-opacity:1; fill:none" points="
  1979.54,1250.64 1858.91,1173.85 1738.87,1095.28 1619.37,1015.88 1500.21,936.232 1381.25,856.4 1262.39,776.652 1143.57,696.774 1024.79,616.916 906.012,530.908 
  787.245,452.566 668.481,372.822 549.719,292.895 430.958,213.107 312.198,133.158 
  "/>
<path clip-path="url(#clip112)" d="M1995.54 1234.64 L1963.54 1234.64 L1979.54 1266.64 L1995.54 1234.64 Z" fill="#ac8d18" fill-rule="evenodd" fill-opacity="1" stroke="#000000" stroke-opacity="1" stroke-width="3.2"/>
<path clip-path="url(#clip112)" d="M1874.91 1157.85 L1842.91 1157.85 L1858.91 1189.85 L1874.91 1157.85 Z" fill="#ac8d18" fill-rule="evenodd" fill-opacity="1" stroke="#000000" stroke-opacity="1" stroke-width="3.2"/>
<path clip-path="url(#clip112)" d="M1754.87 1079.28 L1722.87 1079.28 L1738.87 1111.28 L1754.87 1079.28 Z" fill="#ac8d18" fill-rule="evenodd" fill-opacity="1" stroke="#000000" stroke-opacity="1" stroke-width="3.2"/>
<path clip-path="url(#clip112)" d="M1635.37 999.88 L1603.37 999.88 L1619.37 1031.88 L1635.37 999.88 Z" fill="#ac8d18" fill-rule="evenodd" fill-opacity="1" stroke="#000000" stroke-opacity="1" stroke-width="3.2"/>
<path clip-path="url(#clip112)" d="M1516.21 920.232 L1484.21 920.232 L1500.21 952.232 L1516.21 920.232 Z" fill="#ac8d18" fill-rule="evenodd" fill-opacity="1" stroke="#000000" stroke-opacity="1" stroke-width="3.2"/>
<path clip-path="url(#clip112)" d="M1397.25 840.4 L1365.25 840.4 L1381.25 872.4 L1397.25 840.4 Z" fill="#ac8d18" fill-rule="evenodd" fill-opacity="1" stroke="#000000" stroke-opacity="1" stroke-width="3.2"/>
<path clip-path="url(#clip112)" d="M1278.39 760.652 L1246.39 760.652 L1262.39 792.652 L1278.39 760.652 Z" fill="#ac8d18" fill-rule="evenodd" fill-opacity="1" stroke="#000000" stroke-opacity="1" stroke-width="3.2"/>
<path clip-path="url(#clip112)" d="M1159.57 680.774 L1127.57 680.774 L1143.57 712.774 L1159.57 680.774 Z" fill="#ac8d18" fill-rule="evenodd" fill-opacity="1" stroke="#000000" stroke-opacity="1" stroke-width="3.2"/>
<path clip-path="url(#clip112)" d="M1040.79 600.916 L1008.79 600.916 L1024.79 632.916 L1040.79 600.916 Z" fill="#ac8d18" fill-rule="evenodd" fill-opacity="1" stroke="#000000" stroke-opacity="1" stroke-width="3.2"/>
<path clip-path="url(#clip112)" d="M922.012 514.908 L890.012 514.908 L906.012 546.908 L922.012 514.908 Z" fill="#ac8d18" fill-rule="evenodd" fill-opacity="1" stroke="#000000" stroke-opacity="1" stroke-width="3.2"/>
<path clip-path="url(#clip112)" d="M803.245 436.566 L771.245 436.566 L787.245 468.566 L803.245 436.566 Z" fill="#ac8d18" fill-rule="evenodd" fill-opacity="1" stroke="#000000" stroke-opacity="1" stroke-width="3.2"/>
<path clip-path="url(#clip112)" d="M684.481 356.822 L652.481 356.822 L668.481 388.822 L684.481 356.822 Z" fill="#ac8d18" fill-rule="evenodd" fill-opacity="1" stroke="#000000" stroke-opacity="1" stroke-width="3.2"/>
<path clip-path="url(#clip112)" d="M565.719 276.895 L533.719 276.895 L549.719 308.895 L565.719 276.895 Z" fill="#ac8d18" fill-rule="evenodd" fill-opacity="1" stroke="#000000" stroke-opacity="1" stroke-width="3.2"/>
<path clip-path="url(#clip112)" d="M446.958 197.107 L414.958 197.107 L430.958 229.107 L446.958 197.107 Z" fill="#ac8d18" fill-rule="evenodd" fill-opacity="1" stroke="#000000" stroke-opacity="1" stroke-width="3.2"/>
<path clip-path="url(#clip112)" d="M328.198 117.158 L296.198 117.158 L312.198 149.158 L328.198 117.158 Z" fill="#ac8d18" fill-rule="evenodd" fill-opacity="1" stroke="#000000" stroke-opacity="1" stroke-width="3.2"/>
<path clip-path="url(#clip110)" d="
M322.764 1365.44 L920.006 1365.44 L920.006 1002.56 L322.764 1002.56  Z
  " fill="#ffffff" fill-rule="evenodd" fill-opacity="1"/>
<polyline clip-path="url(#clip110)" style="stroke:#000000; stroke-width:4; stroke-opacity:1; fill:none" points="
  322.764,1365.44 920.006,1365.44 920.006,1002.56 322.764,1002.56 322.764,1365.44 
  "/>
<polyline clip-path="url(#clip110)" style="stroke:#009af9; stroke-width:4; stroke-opacity:1; fill:none" points="
  346.097,1063.04 486.096,1063.04 
  "/>
<path clip-path="url(#clip110)" d="M390.497 1037.44 L390.497 1088.64 L441.697 1088.64 L441.697 1037.44 L390.497 1037.44 Z" fill="#009af9" fill-rule="evenodd" fill-opacity="1" stroke="#000000" stroke-opacity="1" stroke-width="5.12"/>
<path clip-path="url(#clip110)" d="M 0 0 M525.263 1050.37 L518.92 1067.57 L531.629 1067.57 L525.263 1050.37 M522.624 1045.76 L527.925 1045.76 L541.096 1080.32 L536.235 1080.32 L533.087 1071.46 L517.508 1071.46 L514.36 1080.32 L509.43 1080.32 L522.624 1045.76 Z" fill="#000000" fill-rule="evenodd" fill-opacity="1" /><path clip-path="url(#clip110)" d="M 0 0 M546.142 1045.76 L553.11 1045.76 L561.929 1069.28 L570.795 1045.76 L577.763 1045.76 L577.763 1080.32 L573.202 1080.32 L573.202 1049.97 L564.29 1073.68 L559.591 1073.68 L550.679 1049.97 L550.679 1080.32 L546.142 1080.32 L546.142 1045.76 Z" fill="#000000" fill-rule="evenodd" fill-opacity="1" /><path clip-path="url(#clip110)" d="M 0 0 M601.628 1061.69 Q604.985 1062.4 606.86 1064.67 Q608.758 1066.94 608.758 1070.28 Q608.758 1075.39 605.239 1078.19 Q601.721 1080.99 595.239 1080.99 Q593.063 1080.99 590.749 1080.55 Q588.457 1080.14 586.003 1079.28 L586.003 1074.77 Q587.948 1075.9 590.263 1076.48 Q592.577 1077.06 595.1 1077.06 Q599.499 1077.06 601.79 1075.32 Q604.105 1073.59 604.105 1070.28 Q604.105 1067.22 601.952 1065.51 Q599.823 1063.77 596.003 1063.77 L591.975 1063.77 L591.975 1059.93 L596.188 1059.93 Q599.637 1059.93 601.466 1058.56 Q603.295 1057.17 603.295 1054.58 Q603.295 1051.92 601.397 1050.51 Q599.522 1049.07 596.003 1049.07 Q594.082 1049.07 591.883 1049.49 Q589.684 1049.91 587.045 1050.78 L587.045 1046.62 Q589.707 1045.88 592.022 1045.51 Q594.36 1045.14 596.42 1045.14 Q601.744 1045.14 604.846 1047.57 Q607.948 1049.97 607.948 1054.09 Q607.948 1056.97 606.304 1058.96 Q604.661 1060.92 601.628 1061.69 Z" fill="#000000" fill-rule="evenodd" fill-opacity="1" /><polyline clip-path="url(#clip110)" style="stroke:#e26f46; stroke-width:4; stroke-opacity:1; fill:none" points="
  346.097,1123.52 486.096,1123.52 
  "/>
<path clip-path="url(#clip110)" d="M416.097 1097.92 L410.081 1115.23 L391.751 1115.61 L406.369 1126.7 L401.044 1144.23 L416.097 1133.76 L431.149 1144.23 L425.825 1126.7 L440.442 1115.61 L422.113 1115.23 L416.097 1097.92 Z" fill="#e26f46" fill-rule="evenodd" fill-opacity="1" stroke="#000000" stroke-opacity="1" stroke-width="5.12"/>
<path clip-path="url(#clip110)" d="M 0 0 M525.263 1110.85 L518.92 1128.05 L531.629 1128.05 L525.263 1110.85 M522.624 1106.24 L527.925 1106.24 L541.096 1140.8 L536.235 1140.8 L533.087 1131.94 L517.508 1131.94 L514.36 1140.8 L509.43 1140.8 L522.624 1106.24 Z" fill="#000000" fill-rule="evenodd" fill-opacity="1" /><path clip-path="url(#clip110)" d="M 0 0 M550.818 1124.3 L550.818 1136.96 L558.318 1136.96 Q562.091 1136.96 563.897 1135.41 Q565.726 1133.83 565.726 1130.62 Q565.726 1127.38 563.897 1125.85 Q562.091 1124.3 558.318 1124.3 L550.818 1124.3 M550.818 1110.08 L550.818 1120.5 L557.74 1120.5 Q561.165 1120.5 562.832 1119.23 Q564.522 1117.93 564.522 1115.29 Q564.522 1112.68 562.832 1111.38 Q561.165 1110.08 557.74 1110.08 L550.818 1110.08 M546.142 1106.24 L558.087 1106.24 Q563.434 1106.24 566.327 1108.46 Q569.221 1110.69 569.221 1114.78 Q569.221 1117.95 567.74 1119.83 Q566.258 1121.7 563.388 1122.17 Q566.837 1122.91 568.735 1125.27 Q570.656 1127.61 570.656 1131.13 Q570.656 1135.76 567.508 1138.28 Q564.36 1140.8 558.55 1140.8 L546.142 1140.8 L546.142 1106.24 Z" fill="#000000" fill-rule="evenodd" fill-opacity="1" /><path clip-path="url(#clip110)" d="M 0 0 M583.11 1136.87 L599.429 1136.87 L599.429 1140.8 L577.485 1140.8 L577.485 1136.87 Q580.147 1134.11 584.73 1129.48 Q589.337 1124.83 590.517 1123.49 Q592.763 1120.96 593.642 1119.23 Q594.545 1117.47 594.545 1115.78 Q594.545 1113.02 592.6 1111.29 Q590.679 1109.55 587.577 1109.55 Q585.378 1109.55 582.925 1110.32 Q580.494 1111.08 577.716 1112.63 L577.716 1107.91 Q580.54 1106.77 582.994 1106.2 Q585.448 1105.62 587.485 1105.62 Q592.855 1105.62 596.05 1108.3 Q599.244 1110.99 599.244 1115.48 Q599.244 1117.61 598.434 1119.53 Q597.647 1121.43 595.54 1124.02 Q594.962 1124.69 591.86 1127.91 Q588.758 1131.1 583.11 1136.87 Z" fill="#000000" fill-rule="evenodd" fill-opacity="1" /><polyline clip-path="url(#clip110)" style="stroke:#3da44d; stroke-width:4; stroke-opacity:1; fill:none" points="
  346.097,1184 486.096,1184 
  "/>
<path clip-path="url(#clip110)" d="M416.097 1209.6 L393.927 1196.8 L393.927 1171.2 L416.097 1158.4 L438.266 1171.2 L438.266 1196.8 Z" fill="#3da44d" fill-rule="evenodd" fill-opacity="1" stroke="#000000" stroke-opacity="1" stroke-width="5.12"/>
<path clip-path="url(#clip110)" d="M 0 0 M509.43 1166.72 L529.291 1166.72 L529.291 1170.66 L514.106 1170.66 L514.106 1180.84 L527.809 1180.84 L527.809 1184.78 L514.106 1184.78 L514.106 1201.28 L509.43 1201.28 L509.43 1166.72 Z" fill="#000000" fill-rule="evenodd" fill-opacity="1" /><path clip-path="url(#clip110)" d="M 0 0 M544.869 1178.34 Q541.443 1178.34 539.453 1181.03 Q537.462 1183.69 537.462 1188.34 Q537.462 1192.99 539.429 1195.68 Q541.42 1198.34 544.869 1198.34 Q548.272 1198.34 550.263 1195.66 Q552.253 1192.97 552.253 1188.34 Q552.253 1183.74 550.263 1181.05 Q548.272 1178.34 544.869 1178.34 M544.869 1174.73 Q550.425 1174.73 553.596 1178.34 Q556.767 1181.95 556.767 1188.34 Q556.767 1194.71 553.596 1198.34 Q550.425 1201.95 544.869 1201.95 Q539.291 1201.95 536.119 1198.34 Q532.971 1194.71 532.971 1188.34 Q532.971 1181.95 536.119 1178.34 Q539.291 1174.73 544.869 1174.73 Z" fill="#000000" fill-rule="evenodd" fill-opacity="1" /><path clip-path="url(#clip110)" d="M 0 0 M578.851 1179.34 Q578.133 1178.92 577.276 1178.74 Q576.443 1178.53 575.425 1178.53 Q571.814 1178.53 569.869 1180.89 Q567.948 1183.23 567.948 1187.62 L567.948 1201.28 L563.665 1201.28 L563.665 1175.36 L567.948 1175.36 L567.948 1179.38 Q569.29 1177.02 571.443 1175.89 Q573.596 1174.73 576.675 1174.73 Q577.114 1174.73 577.647 1174.8 Q578.179 1174.85 578.827 1174.96 L578.851 1179.34 Z" fill="#000000" fill-rule="evenodd" fill-opacity="1" /><path clip-path="url(#clip110)" d="M 0 0 M580.841 1175.36 L585.101 1175.36 L590.425 1195.59 L595.725 1175.36 L600.749 1175.36 L606.073 1195.59 L611.374 1175.36 L615.633 1175.36 L608.85 1201.28 L603.827 1201.28 L598.249 1180.03 L592.647 1201.28 L587.624 1201.28 L580.841 1175.36 Z" fill="#000000" fill-rule="evenodd" fill-opacity="1" /><path clip-path="url(#clip110)" d="M 0 0 M633.873 1188.25 Q628.711 1188.25 626.721 1189.43 Q624.73 1190.61 624.73 1193.46 Q624.73 1195.73 626.211 1197.07 Q627.716 1198.39 630.285 1198.39 Q633.827 1198.39 635.957 1195.89 Q638.109 1193.36 638.109 1189.2 L638.109 1188.25 L633.873 1188.25 M642.369 1186.49 L642.369 1201.28 L638.109 1201.28 L638.109 1197.35 Q636.651 1199.71 634.475 1200.84 Q632.299 1201.95 629.151 1201.95 Q625.17 1201.95 622.809 1199.73 Q620.471 1197.49 620.471 1193.74 Q620.471 1189.36 623.387 1187.14 Q626.327 1184.92 632.137 1184.92 L638.109 1184.92 L638.109 1184.5 Q638.109 1181.56 636.165 1179.96 Q634.244 1178.34 630.748 1178.34 Q628.526 1178.34 626.42 1178.87 Q624.313 1179.41 622.369 1180.47 L622.369 1176.54 Q624.707 1175.63 626.906 1175.19 Q629.105 1174.73 631.188 1174.73 Q636.813 1174.73 639.591 1177.65 Q642.369 1180.56 642.369 1186.49 Z" fill="#000000" fill-rule="evenodd" fill-opacity="1" /><path clip-path="url(#clip110)" d="M 0 0 M666.165 1179.34 Q665.447 1178.92 664.591 1178.74 Q663.758 1178.53 662.739 1178.53 Q659.128 1178.53 657.183 1180.89 Q655.262 1183.23 655.262 1187.62 L655.262 1201.28 L650.98 1201.28 L650.98 1175.36 L655.262 1175.36 L655.262 1179.38 Q656.605 1177.02 658.758 1175.89 Q660.91 1174.73 663.989 1174.73 Q664.429 1174.73 664.961 1174.8 Q665.494 1174.85 666.142 1174.96 L666.165 1179.34 Z" fill="#000000" fill-rule="evenodd" fill-opacity="1" /><path clip-path="url(#clip110)" d="M 0 0 M686.859 1179.29 L686.859 1165.26 L691.118 1165.26 L691.118 1201.28 L686.859 1201.28 L686.859 1197.39 Q685.517 1199.71 683.456 1200.84 Q681.419 1201.95 678.549 1201.95 Q673.85 1201.95 670.887 1198.2 Q667.947 1194.45 667.947 1188.34 Q667.947 1182.23 670.887 1178.48 Q673.85 1174.73 678.549 1174.73 Q681.419 1174.73 683.456 1175.87 Q685.517 1176.98 686.859 1179.29 M672.345 1188.34 Q672.345 1193.04 674.267 1195.73 Q676.211 1198.39 679.591 1198.39 Q682.97 1198.39 684.915 1195.73 Q686.859 1193.04 686.859 1188.34 Q686.859 1183.64 684.915 1180.98 Q682.97 1178.3 679.591 1178.3 Q676.211 1178.3 674.267 1180.98 Q672.345 1183.64 672.345 1188.34 Z" fill="#000000" fill-rule="evenodd" fill-opacity="1" /><path clip-path="url(#clip110)" d="M 0 0 M715.146 1166.72 L736.998 1166.72 L736.998 1170.66 L719.822 1170.66 L719.822 1180.89 L736.28 1180.89 L736.28 1184.82 L719.822 1184.82 L719.822 1197.35 L737.415 1197.35 L737.415 1201.28 L715.146 1201.28 L715.146 1166.72 Z" fill="#000000" fill-rule="evenodd" fill-opacity="1" /><path clip-path="url(#clip110)" d="M 0 0 M744.475 1191.05 L744.475 1175.36 L748.734 1175.36 L748.734 1190.89 Q748.734 1194.57 750.169 1196.42 Q751.604 1198.25 754.475 1198.25 Q757.924 1198.25 759.914 1196.05 Q761.928 1193.85 761.928 1190.05 L761.928 1175.36 L766.188 1175.36 L766.188 1201.28 L761.928 1201.28 L761.928 1197.3 Q760.377 1199.66 758.317 1200.82 Q756.28 1201.95 753.572 1201.95 Q749.104 1201.95 746.789 1199.18 Q744.475 1196.4 744.475 1191.05 M755.192 1174.73 L755.192 1174.73 Z" fill="#000000" fill-rule="evenodd" fill-opacity="1" /><path clip-path="url(#clip110)" d="M 0 0 M774.961 1165.26 L779.22 1165.26 L779.22 1201.28 L774.961 1201.28 L774.961 1165.26 Z" fill="#000000" fill-rule="evenodd" fill-opacity="1" /><path clip-path="url(#clip110)" d="M 0 0 M810.308 1187.25 L810.308 1189.34 L790.724 1189.34 Q791.002 1193.74 793.363 1196.05 Q795.748 1198.34 799.984 1198.34 Q802.437 1198.34 804.729 1197.74 Q807.044 1197.14 809.312 1195.93 L809.312 1199.96 Q807.021 1200.93 804.613 1201.44 Q802.206 1201.95 799.729 1201.95 Q793.525 1201.95 789.891 1198.34 Q786.28 1194.73 786.28 1188.57 Q786.28 1182.21 789.706 1178.48 Q793.155 1174.73 798.988 1174.73 Q804.22 1174.73 807.252 1178.11 Q810.308 1181.47 810.308 1187.25 M806.048 1186 Q806.002 1182.51 804.081 1180.43 Q802.183 1178.34 799.035 1178.34 Q795.47 1178.34 793.317 1180.36 Q791.187 1182.37 790.863 1186.03 L806.048 1186 Z" fill="#000000" fill-rule="evenodd" fill-opacity="1" /><path clip-path="url(#clip110)" d="M 0 0 M832.321 1179.34 Q831.604 1178.92 830.747 1178.74 Q829.914 1178.53 828.896 1178.53 Q825.284 1178.53 823.34 1180.89 Q821.419 1183.23 821.419 1187.62 L821.419 1201.28 L817.136 1201.28 L817.136 1175.36 L821.419 1175.36 L821.419 1179.38 Q822.761 1177.02 824.914 1175.89 Q827.067 1174.73 830.146 1174.73 Q830.585 1174.73 831.118 1174.8 Q831.65 1174.85 832.298 1174.96 L832.321 1179.34 Z" fill="#000000" fill-rule="evenodd" fill-opacity="1" /><polyline clip-path="url(#clip110)" style="stroke:#c271d2; stroke-width:4; stroke-opacity:1; fill:none" points="
  346.097,1244.48 486.096,1244.48 
  "/>
<path clip-path="url(#clip110)" d="M416.097 1270.08 L408.852 1251.73 L390.497 1244.48 L408.852 1237.24 L416.097 1218.88 L423.341 1237.24 L441.697 1244.48 L423.341 1251.73 L416.097 1270.08 Z" fill="#c271d2" fill-rule="evenodd" fill-opacity="1" stroke="#000000" stroke-opacity="1" stroke-width="5.12"/>
<path clip-path="url(#clip110)" d="M 0 0 M514.106 1245.26 L514.106 1257.92 L521.605 1257.92 Q525.379 1257.92 527.184 1256.37 Q529.013 1254.79 529.013 1251.58 Q529.013 1248.34 527.184 1246.81 Q525.379 1245.26 521.605 1245.26 L514.106 1245.26 M514.106 1231.04 L514.106 1241.46 L521.027 1241.46 Q524.453 1241.46 526.119 1240.19 Q527.809 1238.89 527.809 1236.25 Q527.809 1233.64 526.119 1232.34 Q524.453 1231.04 521.027 1231.04 L514.106 1231.04 M509.43 1227.2 L521.374 1227.2 Q526.721 1227.2 529.615 1229.42 Q532.508 1231.65 532.508 1235.74 Q532.508 1238.91 531.027 1240.79 Q529.545 1242.66 526.675 1243.13 Q530.124 1243.87 532.022 1246.23 Q533.943 1248.57 533.943 1252.09 Q533.943 1256.72 530.795 1259.24 Q527.647 1261.76 521.837 1261.76 L509.43 1261.76 L509.43 1227.2 Z" fill="#000000" fill-rule="evenodd" fill-opacity="1" /><path clip-path="url(#clip110)" d="M 0 0 M553.55 1248.73 Q548.388 1248.73 546.397 1249.91 Q544.406 1251.09 544.406 1253.94 Q544.406 1256.21 545.888 1257.55 Q547.392 1258.87 549.962 1258.87 Q553.503 1258.87 555.633 1256.37 Q557.786 1253.84 557.786 1249.68 L557.786 1248.73 L553.55 1248.73 M562.045 1246.97 L562.045 1261.76 L557.786 1261.76 L557.786 1257.83 Q556.328 1260.19 554.152 1261.32 Q551.976 1262.43 548.828 1262.43 Q544.846 1262.43 542.485 1260.21 Q540.147 1257.97 540.147 1254.22 Q540.147 1249.84 543.064 1247.62 Q546.004 1245.4 551.814 1245.4 L557.786 1245.4 L557.786 1244.98 Q557.786 1242.04 555.841 1240.44 Q553.92 1238.82 550.425 1238.82 Q548.203 1238.82 546.096 1239.35 Q543.99 1239.89 542.045 1240.95 L542.045 1237.02 Q544.383 1236.11 546.582 1235.67 Q548.781 1235.21 550.865 1235.21 Q556.49 1235.21 559.267 1238.13 Q562.045 1241.04 562.045 1246.97 Z" fill="#000000" fill-rule="evenodd" fill-opacity="1" /><path clip-path="url(#clip110)" d="M 0 0 M589.475 1236.83 L589.475 1240.81 Q587.67 1239.82 585.841 1239.33 Q584.036 1238.82 582.184 1238.82 Q578.04 1238.82 575.749 1241.46 Q573.457 1244.08 573.457 1248.82 Q573.457 1253.57 575.749 1256.21 Q578.04 1258.82 582.184 1258.82 Q584.036 1258.82 585.841 1258.34 Q587.67 1257.83 589.475 1256.83 L589.475 1260.77 Q587.693 1261.6 585.772 1262.02 Q583.874 1262.43 581.721 1262.43 Q575.864 1262.43 572.415 1258.75 Q568.966 1255.07 568.966 1248.82 Q568.966 1242.48 572.439 1238.85 Q575.934 1235.21 581.999 1235.21 Q583.966 1235.21 585.841 1235.63 Q587.716 1236.02 589.475 1236.83 Z" fill="#000000" fill-rule="evenodd" fill-opacity="1" /><path clip-path="url(#clip110)" d="M 0 0 M596.721 1225.74 L601.003 1225.74 L601.003 1247.02 L613.711 1235.84 L619.151 1235.84 L605.401 1247.97 L619.73 1261.76 L614.174 1261.76 L601.003 1249.1 L601.003 1261.76 L596.721 1261.76 L596.721 1225.74 Z" fill="#000000" fill-rule="evenodd" fill-opacity="1" /><path clip-path="url(#clip110)" d="M 0 0 M621.86 1235.84 L626.119 1235.84 L631.443 1256.07 L636.744 1235.84 L641.767 1235.84 L647.091 1256.07 L652.392 1235.84 L656.651 1235.84 L649.869 1261.76 L644.846 1261.76 L639.267 1240.51 L633.665 1261.76 L628.642 1261.76 L621.86 1235.84 Z" fill="#000000" fill-rule="evenodd" fill-opacity="1" /><path clip-path="url(#clip110)" d="M 0 0 M674.892 1248.73 Q669.73 1248.73 667.739 1249.91 Q665.748 1251.09 665.748 1253.94 Q665.748 1256.21 667.23 1257.55 Q668.734 1258.87 671.304 1258.87 Q674.845 1258.87 676.975 1256.37 Q679.128 1253.84 679.128 1249.68 L679.128 1248.73 L674.892 1248.73 M683.387 1246.97 L683.387 1261.76 L679.128 1261.76 L679.128 1257.83 Q677.669 1260.19 675.494 1261.32 Q673.318 1262.43 670.17 1262.43 Q666.188 1262.43 663.827 1260.21 Q661.489 1257.97 661.489 1254.22 Q661.489 1249.84 664.406 1247.62 Q667.345 1245.4 673.156 1245.4 L679.128 1245.4 L679.128 1244.98 Q679.128 1242.04 677.183 1240.44 Q675.262 1238.82 671.767 1238.82 Q669.545 1238.82 667.438 1239.35 Q665.332 1239.89 663.387 1240.95 L663.387 1237.02 Q665.725 1236.11 667.924 1235.67 Q670.123 1235.21 672.207 1235.21 Q677.832 1235.21 680.609 1238.13 Q683.387 1241.04 683.387 1246.97 Z" fill="#000000" fill-rule="evenodd" fill-opacity="1" /><path clip-path="url(#clip110)" d="M 0 0 M707.183 1239.82 Q706.466 1239.4 705.609 1239.22 Q704.776 1239.01 703.757 1239.01 Q700.146 1239.01 698.202 1241.37 Q696.28 1243.71 696.28 1248.1 L696.28 1261.76 L691.998 1261.76 L691.998 1235.84 L696.28 1235.84 L696.28 1239.86 Q697.623 1237.5 699.776 1236.37 Q701.929 1235.21 705.007 1235.21 Q705.447 1235.21 705.98 1235.28 Q706.512 1235.33 707.16 1235.44 L707.183 1239.82 Z" fill="#000000" fill-rule="evenodd" fill-opacity="1" /><path clip-path="url(#clip110)" d="M 0 0 M727.878 1239.77 L727.878 1225.74 L732.137 1225.74 L732.137 1261.76 L727.878 1261.76 L727.878 1257.87 Q726.535 1260.19 724.475 1261.32 Q722.438 1262.43 719.567 1262.43 Q714.868 1262.43 711.905 1258.68 Q708.966 1254.93 708.966 1248.82 Q708.966 1242.71 711.905 1238.96 Q714.868 1235.21 719.567 1235.21 Q722.438 1235.21 724.475 1236.35 Q726.535 1237.46 727.878 1239.77 M713.364 1248.82 Q713.364 1253.52 715.285 1256.21 Q717.229 1258.87 720.609 1258.87 Q723.989 1258.87 725.933 1256.21 Q727.878 1253.52 727.878 1248.82 Q727.878 1244.12 725.933 1241.46 Q723.989 1238.78 720.609 1238.78 Q717.229 1238.78 715.285 1241.46 Q713.364 1244.12 713.364 1248.82 Z" fill="#000000" fill-rule="evenodd" fill-opacity="1" /><path clip-path="url(#clip110)" d="M 0 0 M756.164 1227.2 L778.016 1227.2 L778.016 1231.14 L760.84 1231.14 L760.84 1241.37 L777.299 1241.37 L777.299 1245.3 L760.84 1245.3 L760.84 1257.83 L778.433 1257.83 L778.433 1261.76 L756.164 1261.76 L756.164 1227.2 Z" fill="#000000" fill-rule="evenodd" fill-opacity="1" /><path clip-path="url(#clip110)" d="M 0 0 M785.493 1251.53 L785.493 1235.84 L789.752 1235.84 L789.752 1251.37 Q789.752 1255.05 791.187 1256.9 Q792.623 1258.73 795.493 1258.73 Q798.942 1258.73 800.933 1256.53 Q802.947 1254.33 802.947 1250.53 L802.947 1235.84 L807.206 1235.84 L807.206 1261.76 L802.947 1261.76 L802.947 1257.78 Q801.396 1260.14 799.335 1261.3 Q797.298 1262.43 794.59 1262.43 Q790.123 1262.43 787.808 1259.66 Q785.493 1256.88 785.493 1251.53 M796.211 1235.21 L796.211 1235.21 Z" fill="#000000" fill-rule="evenodd" fill-opacity="1" /><path clip-path="url(#clip110)" d="M 0 0 M815.979 1225.74 L820.238 1225.74 L820.238 1261.76 L815.979 1261.76 L815.979 1225.74 Z" fill="#000000" fill-rule="evenodd" fill-opacity="1" /><path clip-path="url(#clip110)" d="M 0 0 M851.326 1247.73 L851.326 1249.82 L831.743 1249.82 Q832.02 1254.22 834.382 1256.53 Q836.766 1258.82 841.002 1258.82 Q843.456 1258.82 845.747 1258.22 Q848.062 1257.62 850.331 1256.41 L850.331 1260.44 Q848.039 1261.41 845.632 1261.92 Q843.224 1262.43 840.747 1262.43 Q834.544 1262.43 830.909 1258.82 Q827.298 1255.21 827.298 1249.05 Q827.298 1242.69 830.724 1238.96 Q834.173 1235.21 840.007 1235.21 Q845.238 1235.21 848.27 1238.59 Q851.326 1241.95 851.326 1247.73 M847.067 1246.48 Q847.02 1242.99 845.099 1240.91 Q843.201 1238.82 840.053 1238.82 Q836.488 1238.82 834.335 1240.84 Q832.206 1242.85 831.882 1246.51 L847.067 1246.48 Z" fill="#000000" fill-rule="evenodd" fill-opacity="1" /><path clip-path="url(#clip110)" d="M 0 0 M873.34 1239.82 Q872.622 1239.4 871.766 1239.22 Q870.932 1239.01 869.914 1239.01 Q866.303 1239.01 864.358 1241.37 Q862.437 1243.71 862.437 1248.1 L862.437 1261.76 L858.155 1261.76 L858.155 1235.84 L862.437 1235.84 L862.437 1239.86 Q863.78 1237.5 865.932 1236.37 Q868.085 1235.21 871.164 1235.21 Q871.604 1235.21 872.136 1235.28 Q872.668 1235.33 873.317 1235.44 L873.34 1239.82 Z" fill="#000000" fill-rule="evenodd" fill-opacity="1" /><polyline clip-path="url(#clip110)" style="stroke:#ac8d18; stroke-width:4; stroke-opacity:1; fill:none" points="
  346.097,1304.96 486.096,1304.96 
  "/>
<path clip-path="url(#clip110)" d="M441.697 1279.36 L390.497 1279.36 L416.097 1330.56 L441.697 1279.36 Z" fill="#ac8d18" fill-rule="evenodd" fill-opacity="1" stroke="#000000" stroke-opacity="1" stroke-width="5.12"/>
<path clip-path="url(#clip110)" d="M 0 0 M525.818 1306.04 Q527.323 1306.55 528.735 1308.21 Q530.17 1309.88 531.605 1312.8 L536.351 1322.24 L531.328 1322.24 L526.906 1313.38 Q525.193 1309.9 523.573 1308.77 Q521.976 1307.64 519.198 1307.64 L514.106 1307.64 L514.106 1322.24 L509.43 1322.24 L509.43 1287.68 L519.985 1287.68 Q525.911 1287.68 528.828 1290.16 Q531.744 1292.64 531.744 1297.64 Q531.744 1300.9 530.217 1303.05 Q528.712 1305.2 525.818 1306.04 M514.106 1291.52 L514.106 1303.79 L519.985 1303.79 Q523.365 1303.79 525.078 1302.24 Q526.814 1300.67 526.814 1297.64 Q526.814 1294.6 525.078 1293.08 Q523.365 1291.52 519.985 1291.52 L514.106 1291.52 Z" fill="#000000" fill-rule="evenodd" fill-opacity="1" /><path clip-path="url(#clip110)" d="M 0 0 M542.369 1287.68 L547.045 1287.68 L547.045 1302.29 L562.554 1287.68 L568.573 1287.68 L551.42 1303.79 L569.8 1322.24 L563.642 1322.24 L547.045 1305.6 L547.045 1322.24 L542.369 1322.24 L542.369 1287.68 Z" fill="#000000" fill-rule="evenodd" fill-opacity="1" /><path clip-path="url(#clip110)" d="M 0 0 M566.142 1307.36 L578.619 1307.36 L578.619 1311.15 L566.142 1311.15 L566.142 1307.36 Z" fill="#000000" fill-rule="evenodd" fill-opacity="1" /><path clip-path="url(#clip110)" d="M 0 0 M590.031 1318.31 L606.35 1318.31 L606.35 1322.24 L584.406 1322.24 L584.406 1318.31 Q587.068 1315.55 591.651 1310.92 Q596.258 1306.27 597.438 1304.93 Q599.684 1302.4 600.563 1300.67 Q601.466 1298.91 601.466 1297.22 Q601.466 1294.46 599.522 1292.73 Q597.6 1290.99 594.499 1290.99 Q592.3 1290.99 589.846 1291.76 Q587.415 1292.52 584.638 1294.07 L584.638 1289.35 Q587.462 1288.21 589.915 1287.64 Q592.369 1287.06 594.406 1287.06 Q599.776 1287.06 602.971 1289.74 Q606.165 1292.43 606.165 1296.92 Q606.165 1299.05 605.355 1300.97 Q604.568 1302.87 602.462 1305.46 Q601.883 1306.13 598.781 1309.35 Q595.679 1312.54 590.031 1318.31 Z" fill="#000000" fill-rule="evenodd" fill-opacity="1" /></svg>
